<?xml version="1.0" encoding="UTF-8"?>
<svg id="Layer_1" data-name="Layer 1" xmlns="http://www.w3.org/2000/svg" viewBox="0 0 137.8 134.14">
  <defs>
    <style>
      .cls-1 {
        fill: #0e5c45;
        font-family: Auroxa-Regular, Auroxa;
        font-size: 121.79px;
      }

      .cls-2 {
        fill: #7ac36a;
      }

      .cls-3 {
        fill: #e2f5f1;
      }

      .cls-4 {
        fill: #0b4b46;
      }
    </style>
  </defs>
  <rect class="cls-3" x="7.03" y="5.01" width="125.46" height="125.46" rx="44.84" ry="44.84"/>
  <rect class="cls-4" x="63.42" y="36.89" width="5.84" height="5.84" rx="1" ry="1"/>
  <rect class="cls-4" x="70.78" y="36.89" width="5.84" height="5.84" rx="1" ry="1"/>
  <rect class="cls-4" x="63.42" y="43.93" width="5.84" height="5.84" rx="1" ry="1"/>
  <rect class="cls-4" x="70.78" y="43.93" width="5.84" height="5.84" rx="1" ry="1"/>
  <g>
    <path class="cls-2" d="M41.18,48.54l28.82-19.21v-9.61l-27.67,18.45c-.82.54-1.3,1.47-1.28,2.45l.13,7.93"/>
    <path class="cls-2" d="M98.82,48.51l-28.82-19.21v-9.61s27.67,18.45,27.67,18.45c.82.54,1.3,1.47,1.28,2.45l-.13,7.93"/>
  </g>
  <text class="cls-1" transform="translate(38.12 112.82)"><tspan x="0" y="0">u</tspan></text>
</svg>