<svg width="40" height="40" viewBox="0 0 40 40" fill="none" xmlns="http://www.w3.org/2000/svg">
<path d="M0 20C0 8.95431 8.95431 0 20 0V0C31.0457 0 40 8.95431 40 20V20C40 31.0457 31.0457 40 20 40V40C8.95431 40 0 31.0457 0 20V20Z" fill="#9810FA"/>
<g clip-path="url(#clip0_32_141)">
<path d="M18.2809 22.9167C18.2065 22.6283 18.0561 22.3651 17.8455 22.1545C17.6349 21.9439 17.3718 21.7936 17.0834 21.7192L11.9709 20.4008C11.8836 20.3761 11.8069 20.3236 11.7522 20.2512C11.6975 20.1789 11.668 20.0907 11.668 20C11.668 19.9093 11.6975 19.8211 11.7522 19.7488C11.8069 19.6765 11.8836 19.6239 11.9709 19.5992L17.0834 18.28C17.3717 18.2057 17.6348 18.0555 17.8454 17.845C18.056 17.6346 18.2063 17.3716 18.2809 17.0833L19.5992 11.9708C19.6237 11.8833 19.6762 11.8061 19.7486 11.7512C19.8211 11.6962 19.9095 11.6665 20.0004 11.6665C20.0914 11.6665 20.1798 11.6962 20.2523 11.7512C20.3247 11.8061 20.3772 11.8833 20.4017 11.9708L21.7192 17.0833C21.7936 17.3717 21.9439 17.6349 22.1545 17.8455C22.3651 18.0561 22.6283 18.2064 22.9167 18.2808L28.0292 19.5983C28.1171 19.6226 28.1946 19.675 28.2499 19.7476C28.3052 19.8201 28.3351 19.9088 28.3351 20C28.3351 20.0912 28.3052 20.1799 28.2499 20.2524C28.1946 20.325 28.1171 20.3774 28.0292 20.4017L22.9167 21.7192C22.6283 21.7936 22.3651 21.9439 22.1545 22.1545C21.9439 22.3651 21.7936 22.6283 21.7192 22.9167L20.4009 28.0292C20.3764 28.1167 20.3239 28.1939 20.2514 28.2489C20.179 28.3038 20.0905 28.3336 19.9996 28.3336C19.9087 28.3336 19.8202 28.3038 19.7478 28.2489C19.6754 28.1939 19.6229 28.1167 19.5984 28.0292L18.2809 22.9167Z" stroke="white" stroke-width="1.66667" stroke-linecap="round" stroke-linejoin="round"/>
<path d="M26.6666 12.5V15.8333" stroke="white" stroke-width="1.66667" stroke-linecap="round" stroke-linejoin="round"/>
<path d="M28.3333 14.1667H25" stroke="white" stroke-width="1.66667" stroke-linecap="round" stroke-linejoin="round"/>
<path d="M13.3334 24.1667V25.8333" stroke="white" stroke-width="1.66667" stroke-linecap="round" stroke-linejoin="round"/>
<path d="M14.1667 25H12.5" stroke="white" stroke-width="1.66667" stroke-linecap="round" stroke-linejoin="round"/>
</g>
<defs>
<clipPath id="clip0_32_141">
<rect width="20" height="20" fill="white" transform="translate(10 10)"/>
</clipPath>
</defs>
</svg>
