<svg width="75" height="65" viewBox="0 0 75 65" fill="none" xmlns="http://www.w3.org/2000/svg">
<path d="M10.7929 52.7974C11.2109 53.2154 11.7304 53.4029 12.2734 53.4029C12.8164 53.4029 13.3359 53.1958 13.7539 52.7974C14.5664 51.9849 14.5664 50.6724 13.7539 49.8599C7.56643 43.6724 4.17193 35.4649 4.17193 26.7149C4.17193 17.9649 7.56643 9.75789 13.7539 3.56989C14.5664 2.75739 14.5664 1.44489 13.7539 0.632385C12.9414 -0.180115 11.6289 -0.180115 10.8164 0.632385C-3.60157 14.9844 -3.60157 38.4024 10.793 52.7964L10.7929 52.7974Z" fill="black"/>
<path d="M61.066 52.7974C61.4839 53.2153 62.0035 53.4028 62.5465 53.4028C63.0894 53.4028 63.6089 53.1958 64.0269 52.7974C78.422 38.4024 78.422 15.0044 64.0269 0.609375C63.2144 -0.203125 61.9019 -0.203125 61.0894 0.609375C60.2769 1.42188 60.2769 2.73438 61.0894 3.54688C67.2769 9.73438 70.6715 17.9419 70.6715 26.6919C70.6715 35.4419 67.2769 43.6489 61.0894 49.8369C60.2535 50.6533 60.2534 51.9849 61.066 52.7974Z" fill="black"/>
<path d="M37.3979 64.1094C38.5424 64.1094 39.4799 63.1719 39.4799 62.0274V44.1094C48.1869 43.0664 54.9599 35.6719 54.9599 26.6914C54.9599 17.0039 47.0849 9.12938 37.3979 9.12938C27.7109 9.12938 19.8359 17.0044 19.8359 26.6914C19.8359 35.6719 26.6054 43.0864 35.3159 44.1094V62.0274C35.3159 63.1915 36.2534 64.1094 37.3979 64.1094ZM24.0029 26.6914C24.0029 19.3164 30.0029 13.2964 37.3979 13.2964C44.7929 13.2964 50.7929 19.2964 50.7929 26.6914C50.7929 34.0664 44.7929 40.0864 37.3979 40.0864C30.0034 40.0903 24.0029 34.0903 24.0029 26.6914Z" fill="black"/>
</svg>
