<svg width="24" height="22" viewBox="0 0 24 22" fill="none" xmlns="http://www.w3.org/2000/svg">
<path d="M7 11H9V13H7V11Z" fill="black"/>
<path d="M13 11H11V13H13V11Z" fill="black"/>
<path d="M15 11H17V13H15V11Z" fill="black"/>
<path d="M9 15H7V17H9V15Z" fill="black"/>
<path d="M11 15H13V17H11V15Z" fill="black"/>
<path d="M17 15H15V17H17V15Z" fill="black"/>
<path fill-rule="evenodd" clip-rule="evenodd" d="M5 0C5.55228 0 6 0.447715 6 1V2H18V1C18 0.447715 18.4477 0 19 0C19.5523 0 20 0.447715 20 1V2H21C22.6569 2 24 3.34315 24 5V19C24 20.6569 22.6569 22 21 22H3C1.34314 22 0 20.6569 0 19V5C0 3.34315 1.34315 2 3 2H4V1C4 0.447715 4.44772 0 5 0ZM2 8V19C2 19.5523 2.44772 20 3 20H21C21.5523 20 22 19.5523 22 19V8H2Z" fill="black"/>
</svg>
