<svg width="15" height="15" viewBox="0 0 15 15" fill="none" xmlns="http://www.w3.org/2000/svg">
<path d="M14.9999 0.775858V2.84481C14.9999 3.27347 14.6527 3.62067 14.2241 3.62067H0.775858C0.347204 3.62067 0 3.27347 0 2.84481V0.775858C0 0.347204 0.347204 0 0.775858 0H14.2241C14.6527 0 14.9999 0.347204 14.9999 0.775858ZM6.20686 4.39653H0.775941C0.347286 4.39653 8.27916e-05 4.74373 8.27916e-05 5.17238V10.3448C8.27916e-05 10.7734 0.347286 11.1206 0.775941 11.1206H6.20686C6.63552 11.1206 6.98272 10.7734 6.98272 10.3448V5.17238C6.98272 4.74373 6.63552 4.39653 6.20686 4.39653ZM14.2241 4.39653H8.79322C8.36457 4.39653 8.01736 4.74373 8.01736 5.17238V14.2241C8.01736 14.6528 8.36457 15 8.79322 15H14.2241C14.6528 15 15 14.6528 15 14.2241V5.17238C15 4.74373 14.6528 4.39653 14.2241 4.39653ZM6.20686 11.8964H0.775941C0.347286 11.8964 8.27916e-05 12.2436 8.27916e-05 12.6723V14.224C8.27916e-05 14.6526 0.347286 14.9998 0.775941 14.9998H6.20686C6.63552 14.9998 6.98272 14.6526 6.98272 14.224V12.6723C6.98272 12.2436 6.63552 11.8964 6.20686 11.8964Z" fill="#666666" fill-opacity="0.83"/>
</svg>
