<svg width="60" height="60" viewBox="0 0 60 60" fill="none" xmlns="http://www.w3.org/2000/svg">
<path d="M38.59 27.5816L27 39.1716L21.4102 33.5818C21.0313 33.2029 20.5313 33.0037 20 33.0037C19.4688 33.0037 18.9609 33.2146 18.5898 33.5818C17.8086 34.3631 17.8086 35.6326 18.5898 36.4099L23.9179 41.738C24.7383 42.5583 25.8398 43.0075 27.0077 43.0075C28.1796 43.0075 29.2694 42.5583 30.0975 41.738L41.4255 30.41C42.2068 29.6288 42.2068 28.3592 41.4255 27.5819C40.6443 26.8007 39.3747 26.8007 38.5974 27.5819L38.59 27.5816Z" fill="black"/>
<path d="M55.1016 14.5236L36.1016 1.8516C34.293 0.640699 32.1797 0 30 0C27.8203 0 25.7109 0.640619 23.8984 1.8516L4.8984 14.5236C1.8281 16.5627 0 19.9924 0 23.672V49.992C0 55.5037 4.4883 59.992 10 59.992H50C55.5117 59.992 60 55.5037 60 49.992V23.672C60 19.9806 58.1719 16.5626 55.1016 14.5236ZM56 50.0036C56 53.3122 53.3086 56.0036 50 56.0036H10C6.69144 56.0036 4.00004 53.3122 4.00004 50.0036V23.6836C4.00004 21.332 5.17194 19.1641 7.12114 17.8633L26.1211 5.1913C28.4414 3.6405 31.5625 3.6405 33.8828 5.1913L52.8828 17.8633C54.832 19.1641 56.0039 21.3438 56.0039 23.6836V50.0036H56Z" fill="black"/>
</svg>
