<svg width="95" height="81" viewBox="0 0 95 81" fill="none" xmlns="http://www.w3.org/2000/svg">
<path d="M93.4439 10.9616V10.9289C93.045 10.0318 92.5729 9.16878 92.0329 8.34911C91.8396 8.04989 91.6129 7.77922 91.4041 7.49019C90.9768 6.90704 90.5159 6.34938 90.0234 5.82078C89.7746 5.55724 89.5266 5.29803 89.2632 5.05004C88.6693 4.48907 88.0382 3.96684 87.3742 3.4892C87.1842 3.35361 87.0089 3.19712 86.8155 3.0651C85.9567 2.50081 85.0507 2.01298 84.1078 1.60417C83.8231 1.47622 83.527 1.38141 83.2343 1.2713C82.5003 0.989924 81.7483 0.755187 80.9842 0.569895C80.6587 0.493433 80.3414 0.412639 80.0087 0.354783C78.9288 0.136102 77.8318 0.0170765 76.7309 0H18.2693C17.1714 0.010705 16.077 0.122339 14.9987 0.332864C14.666 0.391484 14.3487 0.471514 14.0232 0.547976C13.2591 0.734033 12.5071 0.968006 11.7731 1.24938C11.4811 1.35873 11.1851 1.4543 10.8996 1.58225C9.95685 1.99081 9.05065 2.48016 8.19185 3.04369C7.99446 3.1752 7.82637 3.33246 7.63317 3.46779C6.96923 3.94492 6.33791 4.46613 5.74419 5.0271C5.48078 5.27586 5.23279 5.53532 4.98403 5.79784V5.79886C4.49149 6.32746 4.02979 6.88512 3.60249 7.46827C3.39452 7.75704 3.16781 8.02695 2.9736 8.32719C2.43365 9.14686 1.96226 10.0099 1.56351 10.9068V10.9394C0.535869 13.2467 0.0033133 15.7435 0 18.269V62.1152C0.0057347 66.9591 1.93219 71.6023 5.35755 75.0268C8.78214 78.4523 13.4255 80.3789 18.2693 80.3845L76.7307 80.3847C81.5746 80.3789 86.2179 78.4523 89.6425 75.027C93.0679 71.6023 94.9944 66.9591 95 62.1155V18.2693C94.9959 15.7514 94.4658 13.2623 93.4439 10.9616ZM10.018 11.1295C10.3672 10.7306 10.7431 10.3555 11.1435 10.0081C11.3369 9.84011 11.5309 9.6719 11.7357 9.51872C12.1565 9.2088 12.6003 8.92971 13.0618 8.68503C13.2772 8.56448 13.4859 8.43322 13.7119 8.3198C14.2281 8.09067 14.7607 7.90156 15.3055 7.75373C15.5103 7.69919 15.7036 7.611 15.9123 7.56767C16.6862 7.39462 17.4758 7.30668 18.2685 7.3077H76.7307C77.5235 7.31 78.3147 7.40149 79.0878 7.57838C79.2958 7.62222 79.49 7.70964 79.6947 7.76443C80.2396 7.91175 80.7712 8.10112 81.2875 8.33025C81.5142 8.4322 81.7222 8.56422 81.9375 8.69574C82.3991 8.94347 82.8419 9.22256 83.2636 9.53248C83.4684 9.68566 83.6616 9.85388 83.8558 10.0218C84.2562 10.3695 84.6322 10.7454 84.9813 11.144L85.2333 11.4509L54.0107 34.5077C52.1298 35.9095 49.8463 36.6675 47.4997 36.6675C45.1531 36.6675 42.8695 35.9097 40.9887 34.5077L9.76607 11.4361L10.018 11.1295ZM87.6912 62.1155C87.6912 65.023 86.5362 67.8106 84.4809 69.8666C82.4249 71.9219 79.6372 73.077 76.7296 73.077H18.2691C15.3615 73.077 12.574 71.9219 10.5178 69.8666C8.46253 67.8106 7.30757 65.023 7.30757 62.1155V18.7036L36.647 40.3738C39.7846 42.7064 43.5902 43.9658 47.4993 43.9658C51.4085 43.9658 55.214 42.7064 58.3518 40.3738L87.6912 18.7036V62.1155Z" fill="black"/>
</svg>
