<svg width="82" height="82" viewBox="0 0 82 82" fill="none" xmlns="http://www.w3.org/2000/svg">
<path d="M77.0821 46.6262V6.7512C76.9923 2.94651 73.8477 -0.069095 70.043 0.00120495H7.043C3.2383 -0.0691071 0.0899 2.94651 0 6.7512V53.6692C0.089844 57.47 3.2383 60.4895 7.043 60.4192H37.625C37.9219 67.3215 41.4648 73.6772 47.1836 77.5562C52.9024 81.4351 60.1216 82.3765 66.6406 80.0953C73.164 77.818 78.2226 72.5836 80.2816 65.9863C82.3402 59.3925 81.1527 52.2133 77.0824 46.6273L77.0821 46.6262ZM65.6251 6.2512L39.2071 29.0832C38.8282 29.423 38.254 29.423 37.8751 29.0832L11.4571 6.2512H65.6251ZM6.2501 53.6692V10.0832L33.7931 33.7902V33.7941C36.5119 36.173 40.5743 36.173 43.2931 33.7941L70.8361 10.0871V40.8371L70.8322 40.8332C67.4025 38.6652 63.4338 37.5129 59.3752 37.5012C54.4924 37.5129 49.7502 39.1574 45.9142 42.1809C42.0783 45.2004 39.3634 49.4231 38.2072 54.1689H7.04319C6.54319 54.1689 6.2501 53.8762 6.2501 53.6692ZM59.3751 75.0012C55.2306 75.0012 51.2579 73.3567 48.3281 70.4231C45.3945 67.4934 43.75 63.5208 43.75 59.3761C43.75 55.2314 45.3945 51.2589 48.3281 48.3291C51.2578 45.3955 55.2304 43.751 59.3751 43.751C63.5198 43.751 67.4923 45.3955 70.4221 48.3291C73.3557 51.2588 75.0002 55.2314 75.0002 59.3761C75.0002 63.5208 73.3557 67.4933 70.4221 70.4231C67.4924 73.3567 63.5198 75.0012 59.3751 75.0012ZM67.7071 55.3332L63.5391 59.5012L67.7071 63.6692C68.9259 64.888 68.9259 66.8645 67.7071 68.0833C66.4883 69.3021 64.5118 69.3021 63.293 68.0833L59.125 63.9153L54.957 68.0833C53.7382 69.3021 51.7617 69.3021 50.5429 68.0833C49.3241 66.8645 49.3241 64.888 50.5429 63.6692L54.7109 59.5012L50.5429 55.3332C49.3945 54.1027 49.4296 52.1848 50.6171 50.9934C51.8085 49.8059 53.7265 49.7707 54.9569 50.9192L59.1249 55.0872L63.2929 50.9192C64.5234 49.7708 66.4413 49.8059 67.6327 50.9934C68.8202 52.1848 68.8556 54.1028 67.7071 55.3332Z" fill="black"/>
</svg>
