<svg width="15" height="15" viewBox="0 0 15 15" fill="none" xmlns="http://www.w3.org/2000/svg">
<path fill-rule="evenodd" clip-rule="evenodd" d="M13.9285 1.81005L9.31674 6.19159C8.96049 6.53043 8.46831 6.68712 7.98214 6.61749L2.87086 5.88758C2.57823 5.84606 2.37466 5.57419 2.41618 5.28154C2.4577 4.98891 2.72957 4.78534 3.02221 4.82686L8.13349 5.55677C8.29621 5.58021 8.4596 5.52798 8.57814 5.41481L13.1505 1.07149H12.8572C12.5612 1.07149 12.3214 0.831768 12.3214 0.535779C12.3214 0.239791 12.5612 6.51496e-05 12.8572 6.51496e-05H14.4643C14.7603 6.51496e-05 15 0.239791 15 0.535779V2.14292C15 2.43891 14.7603 2.67864 14.4643 2.67864C14.1683 2.67864 13.9286 2.43891 13.9286 2.14292L13.9285 1.81005ZM0 0.535714C0 0.239726 0.239724 0 0.535711 0C0.831697 0 1.07142 0.239726 1.07142 0.535714V13.3929C1.07142 13.6888 1.31115 13.9286 1.60713 13.9286H14.4642C14.7602 13.9286 14.9999 14.1683 14.9999 14.4643C14.9999 14.7603 14.7602 15 14.4642 15H1.60713C0.719189 15 0 14.2808 0 13.3929V0.535714ZM4.28568 6.96429C4.71225 6.96429 5.12072 7.1337 5.42206 7.43505C5.72339 7.73638 5.89282 8.14486 5.89282 8.57143V11.25C5.89282 11.6766 5.7234 12.085 5.42206 12.3864C5.12072 12.6877 4.71225 12.8571 4.28568 12.8571H3.74997C3.32341 12.8571 2.91493 12.6877 2.6136 12.3864C2.31226 12.085 2.14284 11.6766 2.14284 11.25V8.57143C2.14284 8.14486 2.31226 7.73638 2.6136 7.43505C2.91493 7.13371 3.32341 6.96429 3.74997 6.96429H4.28568ZM8.83914 7.5C9.2657 7.5 9.67418 7.66942 9.97551 7.97076C10.2768 8.2721 10.4463 8.68058 10.4463 9.10714V11.25C10.4463 11.6766 10.2769 12.085 9.97551 12.3864C9.67418 12.6877 9.2657 12.8571 8.83914 12.8571H8.30343C7.87687 12.8571 7.46839 12.6877 7.16705 12.3864C6.86572 12.085 6.6963 11.6766 6.6963 11.25V9.10714C6.6963 8.68058 6.86572 8.2721 7.16705 7.97076C7.46839 7.66942 7.87687 7.5 8.30343 7.5H8.83914ZM13.3926 4.28571C14.2805 4.28571 14.9997 5.00491 14.9997 5.89286V11.25C14.9997 12.1379 14.2805 12.8571 13.3926 12.8571H12.8569C11.9689 12.8571 11.2498 12.1379 11.2498 11.25V5.89286C11.2498 5.00491 11.9689 4.28571 12.8569 4.28571H13.3926Z" fill="#808080"/>
</svg>
