<?xml version="1.0" encoding="UTF-8"?>
<svg id="Layer_1" data-name="Layer 1" xmlns="http://www.w3.org/2000/svg" viewBox="0 0 525.12 483.58">
  <defs>
    <style>
      .cls-1 {
        fill: #1a2d38;
      }

      .cls-2 {
        fill: #ffd920;
      }
    </style>
  </defs>
  <circle class="cls-1" cx="264.45" cy="241.3" r="215.84"/>
  <g>
    <path class="cls-2" d="M208.87,330.99c-.42.21-1.52.12-1.89-.11-.44-.28-.65-1.57-.36-2.2l28.68-60.64c1.6-3.39,3.96-5.81,7.95-5.83l54.7-.24c13.48-.06,25.81-5.31,35.79-13.98,12.87-11.66,18.92-28.6,15.59-46.07,13.17,4.38,26.88,2.7,38.1-5.78,5.29,26.96-2.73,54.4-21.44,74.31-17.65,18.6-41.97,30-67.76,30.07l-28.97.08c-3.4,0-6.67,1.2-9.65,2.85l-37.13,20.6-13.62,6.93Z"/>
    <path class="cls-2" d="M235.34,220.17l-12.61,29.06c-.93,2.14-2.29,3.85-4.02,5.43l-45.52,24.26-2.16-.15c-.49-.03-.94-1.63-.74-2.12l33.28-78.65c4.31-10.19,9.14-19.58,14.92-28.95,15.84-25.69,42.4-39.48,72.27-41.99,16.69-1.41,33.02,1.3,48.32,8.24-5.02,4.11-8.45,8.71-11.1,14.16-3.48,6.92-4.74,14.44-3.85,22.11-13.17-5.77-27.15-6.17-40.66-3.74-13.74,2.66-25.12,10.59-32.62,22.45-6.03,9.53-10.91,19.28-15.51,29.89Z"/>
    <path class="cls-2" d="M140.72,355.74c-.9.41-2.47,0-2.84-.51s-.53-1.88-.18-2.66l22.91-50.16c1.39-3.04,3.13-4.75,6.02-6.29l45.56-24.28c.38-.2,1.64-.44,1.73-.06l.42,1.71-25.93,56.51c-1.47,3.46-3.73,5.59-7.07,7.12l-40.62,18.63Z"/>
    <path class="cls-2" d="M370.65,192.72c-9.19,2.38-18.3.25-25.38-5.51-6.67-5.42-10.68-14.13-10.11-23.15.92-14.37,12.42-25.7,26.34-26.54,14.4-.86,26.96,9.09,29.46,23.06,2.54,14.16-5.84,28.4-20.31,32.14Z"/>
  </g>
</svg>