<svg width="67" height="84" viewBox="0 0 67 84" fill="none" xmlns="http://www.w3.org/2000/svg">
<path d="M33.332 0C30.7148 0 28.875 1.8633 27.9531 4.168H25C22.7227 4.168 20.832 6.0586 20.832 8.336H10.414C4.6796 8.336 0 13.0157 0 18.75V72.918C0 78.6524 4.6797 83.336 10.414 83.336H56.246C61.9843 83.336 66.664 78.6524 66.664 72.918V18.75C66.664 13.0156 61.9843 8.336 56.25 8.336H45.832C45.832 6.0587 43.9414 4.168 41.664 4.168H38.7109C37.789 1.8633 35.9492 0 33.332 0ZM33.332 4.168C34.5078 4.168 35.414 5.07425 35.414 6.25C35.414 7.4023 36.3476 8.332 37.496 8.332L29.164 8.33591C30.3163 8.33591 31.2499 7.40232 31.2499 6.25001C31.2499 5.07421 32.1563 4.168 33.332 4.168ZM10.414 12.5H56.246C59.746 12.5 62.4999 15.2539 62.4999 18.75V72.918C62.4999 76.418 59.746 79.168 56.2499 79.168H10.4139C6.9178 79.168 4.1639 76.418 4.1639 72.918V18.75C4.1639 15.2539 6.9179 12.5 10.414 12.5Z" fill="black"/>
<path d="M14.582 16.668C11.1562 16.668 8.332 19.4922 8.332 22.918V68.75C8.332 72.1797 11.1562 75 14.582 75H47.914C49.8007 75 51.6093 74.25 52.9413 72.918L56.2499 69.6133C57.5819 68.2813 58.3319 66.4688 58.3319 64.586V22.918C58.3319 19.4922 55.5077 16.668 52.0819 16.668H14.582ZM14.582 20.836H52.082C53.2578 20.836 54.164 21.7422 54.164 22.918V64.586C54.164 65.3672 53.8554 66.1172 53.3007 66.668L49.9999 69.9727C49.4452 70.5235 48.6991 70.836 47.914 70.836H14.582C13.4062 70.836 12.5 69.9258 12.5 68.7501V22.9181C12.5 21.7423 13.4063 20.836 14.582 20.836Z" fill="black"/>
<path d="M27.691 54.777L22.9137 59.5543L20.2223 56.8629C19.4059 56.0465 18.0895 56.0465 17.277 56.8629C16.4606 57.6754 16.4606 58.9918 17.277 59.8082L21.445 63.9762L21.4411 63.9723C22.2575 64.7887 23.5739 64.7887 24.3864 63.9723L30.6364 57.7223C31.4528 56.9098 31.4528 55.5934 30.6364 54.777C29.8239 53.9645 28.5074 53.9645 27.691 54.777Z" fill="black"/>
<path d="M37.5 58.336C36.3477 58.336 35.4141 59.2657 35.4141 60.418C35.4141 60.9688 35.6368 61.5 36.0274 61.8907C36.418 62.2813 36.9453 62.5001 37.5001 62.5001H47.9181H47.9142C48.4689 62.5001 48.9962 62.2813 49.3869 61.8907C49.7775 61.5001 50.0001 60.9688 50.0001 60.418C50.0001 59.8672 49.7775 59.336 49.3869 58.9453C48.9962 58.5547 48.4689 58.3359 47.9142 58.3359L37.5 58.336Z" fill="black"/>
<path d="M27.691 42.277L22.9137 47.0543L20.2223 44.3629C19.4059 43.5465 18.0895 43.5465 17.277 44.3629C16.4606 45.1754 16.4606 46.4918 17.277 47.3082L21.445 51.4762L21.4411 51.4723C22.2575 52.2887 23.5739 52.2887 24.3864 51.4723L30.6364 45.2223C31.4528 44.4098 31.4528 43.0934 30.6364 42.277C29.8239 41.4645 28.5074 41.4645 27.691 42.277Z" fill="black"/>
<path d="M37.5 45.836C36.3477 45.836 35.4141 46.7657 35.4141 47.918C35.4141 48.4688 35.6368 49 36.0274 49.3907C36.418 49.7813 36.9453 50.0001 37.5001 50.0001H47.9181H47.9142C48.4689 50.0001 48.9962 49.7813 49.3869 49.3907C49.7775 49.0001 50.0001 48.4688 50.0001 47.918C50.0001 47.3672 49.7775 46.836 49.3869 46.4453C48.9962 46.0547 48.4689 45.8359 47.9142 45.8359L37.5 45.836Z" fill="black"/>
<path d="M27.691 29.777L22.9137 34.5543L20.2223 31.8629C19.4059 31.0465 18.0895 31.0465 17.277 31.8629C16.4606 32.6754 16.4606 33.9918 17.277 34.8082L21.445 38.9762L21.4411 38.9723C22.2575 39.7887 23.5739 39.7887 24.3864 38.9723L30.6364 32.7223C31.4528 31.9098 31.4528 30.5934 30.6364 29.777C29.8239 28.9645 28.5074 28.9645 27.691 29.777Z" fill="black"/>
<path d="M37.5 33.336C36.3477 33.336 35.4141 34.2657 35.4141 35.418C35.4141 35.9688 35.6368 36.5 36.0274 36.8907C36.418 37.2813 36.9453 37.5001 37.5001 37.5001H47.9181H47.9142C48.4689 37.5001 48.9962 37.2813 49.3869 36.8907C49.7775 36.5001 50.0001 35.9688 50.0001 35.418C50.0001 34.8672 49.7775 34.336 49.3869 33.9453C48.9962 33.5547 48.4689 33.3359 47.9142 33.3359L37.5 33.336Z" fill="black"/>
</svg>
