<svg width="88" height="88" viewBox="0 0 88 88" fill="none" xmlns="http://www.w3.org/2000/svg">
<path fill-rule="evenodd" clip-rule="evenodd" d="M67.5839 48.9812L87.0179 78.8362C91.3695 85.5237 80.1156 92.0242 76.4979 84.9104L60.3569 53.1524C61.646 52.6407 62.9038 52.0313 64.1225 51.3282C65.3373 50.6251 66.4941 49.8367 67.5839 48.9812ZM56.4899 0.903205C42.4549 -2.8585 28.0289 5.47351 24.2669 19.5082C22.5833 25.7934 23.3255 32.1562 25.9153 37.6062L31.1145 33.2429C29.72 29.5124 29.4348 25.3288 30.5403 21.1919C33.3723 10.6219 44.2353 4.35191 54.8063 7.18391C65.3763 10.0159 71.6463 20.8789 68.8143 31.4499C65.9862 42.0159 55.1233 48.2859 44.5523 45.4579C44.3726 45.411 44.1929 45.3563 44.0132 45.3056L38.3413 50.0673C39.7749 50.7509 41.2866 51.3134 42.8725 51.7353C56.9075 55.497 71.3375 47.165 75.0955 33.1303C78.8572 19.0913 70.5285 4.6652 56.4899 0.903205ZM49.6266 37.2432L22.5326 59.9772C19.9076 62.1725 15.9974 61.8249 13.8021 59.1999L1.16511 44.1449C0.2862 43.0941 -0.0965896 41.8793 0.0206104 40.516C0.1417 39.1527 0.73155 38.0199 1.78231 37.1449L3.67291 35.5629C5.77061 33.809 8.90731 34.0863 10.6651 36.1801L19.3174 46.4921L41.6614 27.7421C42.7122 26.8631 43.927 26.4804 45.2903 26.6015C46.6536 26.7225 47.7864 27.3124 48.6614 28.3632L50.2434 30.2538C51.9973 32.3436 51.72 35.4843 49.6262 37.2421L49.6266 37.2432Z" fill="black"/>
</svg>
