<svg width="24" height="30" viewBox="0 0 24 30" fill="none" xmlns="http://www.w3.org/2000/svg">
<path d="M14.2747 20.0968H9.72536C9.53843 20.0968 9.37316 19.9751 9.3178 19.7965L9.21528 19.466C9.20742 19.4405 9.20194 19.4146 9.19885 19.3884C9.05513 18.1375 8.46599 16.9527 7.54 16.0523C6.29051 14.8371 5.60229 13.2073 5.60229 11.4628C5.60229 7.93504 8.4723 5.06503 12 5.06503C15.5278 5.06503 18.3978 7.93504 18.3978 11.4628C18.3978 13.2073 17.7096 14.8371 16.4601 16.0523C15.5341 16.9527 14.9449 18.1375 14.8012 19.3884C14.7981 19.4146 14.7926 19.4405 14.7848 19.466L14.6823 19.7965C14.6269 19.9751 14.4616 20.0968 14.2747 20.0968ZM10.0411 19.2434H13.9589C14.1343 17.815 14.81 16.4662 15.865 15.4403C16.9479 14.3873 17.5443 12.9747 17.5443 11.4628C17.5443 8.40559 15.0571 5.91851 12 5.91851C8.94297 5.91851 6.45577 8.40559 6.45577 11.4628C6.45577 12.9747 7.05218 14.3873 8.1351 15.4403C9.19004 16.4662 9.86575 17.815 10.0411 19.2434Z" fill="#9810fa"/>
<path d="M12 23.4C10.5098 23.4 9.29761 22.1876 9.29761 20.6976V19.6713C9.29761 19.4355 9.48871 19.2445 9.72435 19.2445C9.95998 19.2445 10.1511 19.4355 10.1511 19.6713V20.6976C10.1511 21.7171 10.9805 22.5465 12 22.5465C13.0194 22.5465 13.8488 21.7171 13.8488 20.6976V19.6713C13.8488 19.4355 14.0399 19.2445 14.2756 19.2445C14.5112 19.2445 14.7023 19.4355 14.7023 19.6713V20.6976C14.7023 22.1876 13.4901 23.4 12 23.4Z" fill="#9810fa"/>
<path d="M11.998 2.80538C11.7624 2.80538 11.5713 2.61439 11.5713 2.37864V1.02674C11.5713 0.79099 11.7624 0.600006 11.998 0.600006C12.2337 0.600006 12.4248 0.79099 12.4248 1.02674V2.37864C12.4248 2.61439 12.2337 2.80538 11.998 2.80538Z" fill="#9810fa"/>
<path d="M7.45699 4.02629C7.30923 4.02629 7.16551 3.94938 7.08657 3.81221L6.41384 2.64106C6.29644 2.4365 6.36693 2.17575 6.57137 2.05835C6.77521 1.94142 7.03644 2.01143 7.15396 2.21575L7.8267 3.3869C7.9441 3.59146 7.87361 3.85222 7.66917 3.96962C7.60225 4.00796 7.52915 4.02629 7.45699 4.02629Z" fill="#9810fa"/>
<path d="M4.13592 7.35278C4.06317 7.35278 3.98959 7.33421 3.92231 7.29515L2.75117 6.61623C2.5472 6.49812 2.47779 6.23688 2.5959 6.03304C2.71425 5.82919 2.97597 5.76037 3.17909 5.87801L4.35024 6.55694C4.55421 6.67505 4.62362 6.93628 4.50551 7.14013C4.42633 7.27658 4.28309 7.35278 4.13592 7.35278Z" fill="#9810fa"/>
<path d="M22.4322 11.8878H21.0868C20.8511 11.8878 20.66 11.6969 20.66 11.4611C20.66 11.2253 20.8511 11.0344 21.0868 11.0344H22.4322C22.6679 11.0344 22.859 11.2253 22.859 11.4611C22.859 11.6969 22.6679 11.8878 22.4322 11.8878Z" fill="#9810fa"/>
<path d="M2.91319 11.8878H1.56773C1.33209 11.8878 1.14099 11.6969 1.14099 11.4611C1.14099 11.2253 1.33209 11.0344 1.56773 11.0344H2.91319C3.14883 11.0344 3.33993 11.2253 3.33993 11.4611C3.33993 11.6969 3.14883 11.8878 2.91319 11.8878Z" fill="#9810fa"/>
<path d="M19.8723 7.34662C19.7249 7.34662 19.5814 7.27018 19.5023 7.13325C19.3844 6.92917 19.4545 6.66817 19.6585 6.55029L20.8235 5.87756C21.0272 5.75968 21.2886 5.8297 21.4064 6.03378C21.5243 6.23786 21.4543 6.49886 21.2502 6.61673L20.0853 7.28946C20.0181 7.32828 19.9447 7.34662 19.8723 7.34662Z" fill="#9810fa"/>
<path d="M16.5389 4.0263C16.4661 4.0263 16.3925 4.00772 16.3251 3.96867C16.1213 3.85055 16.0519 3.58932 16.17 3.38547L16.849 2.21433C16.9674 2.01048 17.2286 1.94142 17.4324 2.0593C17.6362 2.17742 17.7056 2.43865 17.5875 2.64249L16.9085 3.81364C16.8293 3.95009 16.686 4.0263 16.5389 4.0263Z" fill="#9810fa"/>
<path d="M12 20.098C11.7643 20.098 11.5732 19.907 11.5732 19.6713V13.7138C11.5732 13.4781 11.7643 13.2871 12 13.2871C12.2356 13.2871 12.4267 13.4781 12.4267 13.7138V19.6713C12.4267 19.907 12.2356 20.098 12 20.098Z" fill="#9810fa"/>
<path d="M12.7531 14.1406H11.2469C11.0113 14.1406 10.8202 13.9496 10.8202 13.7138C10.8202 13.4781 11.0113 13.2871 11.2469 13.2871H12.7531C12.9888 13.2871 13.1799 13.4781 13.1799 13.7138C13.1799 13.9496 12.9888 14.1406 12.7531 14.1406Z" fill="#9810fa"/>
</svg>
