<svg width="53" height="53" viewBox="0 0 53 53" fill="none" xmlns="http://www.w3.org/2000/svg">
<path d="M21.7394 43.4696C16.1691 43.4696 10.5984 41.3485 6.36038 37.1102C-2.12012 28.6297 -2.12012 14.8402 6.36038 6.36019C14.8409 -2.11981 28.6304 -2.12031 37.1104 6.36019C45.5904 14.8407 45.5909 28.6302 37.1104 37.1102C32.8721 41.3485 27.3018 43.4696 21.7314 43.4696H21.7394ZM21.7394 4.00059C17.2003 4.00059 12.6496 5.73109 9.18838 9.19199C2.26648 16.1139 2.26648 27.372 9.18838 34.282C16.1103 41.2039 27.3684 41.2039 34.2904 34.282C41.2124 27.3601 41.2123 16.102 34.2904 9.19199C30.8295 5.73109 26.2904 4.00059 21.7394 4.00059Z" fill="black"/>
<path d="M50.6296 52.6296C50.1178 52.6296 49.6101 52.4303 49.2194 52.0397L34.2974 37.1177C33.5161 36.3365 33.5161 35.0669 34.2974 34.2896C35.0786 33.5084 36.3482 33.5084 37.1255 34.2896L52.0475 49.2116C52.8287 49.9929 52.8287 51.2624 52.0475 52.0397C51.6568 52.4303 51.149 52.6296 50.6373 52.6296H50.6296Z" fill="black"/>
</svg>
