<svg width="40" height="40" viewBox="0 0 40 40" fill="none" xmlns="http://www.w3.org/2000/svg">
<path d="M0 20C0 8.95431 8.95431 0 20 0V0C31.0457 0 40 8.95431 40 20V20C40 31.0457 31.0457 40 20 40V40C8.95431 40 0 31.0457 0 20V20Z" fill="#101828"/>
<path fill-rule="evenodd" clip-rule="evenodd" d="M13.2779 17.2164C13.097 17.6526 12.7208 17.9283 12.2575 17.9669L10.9566 18.0753C10.4149 18.1207 10 18.5705 10 19.114V20.886C10 21.4295 10.414 21.8803 10.9566 21.9247L12.2575 22.0331C12.7208 22.0718 13.097 22.3464 13.2779 22.7836C13.4597 23.2198 13.3882 23.6822 13.0873 24.0371L12.244 25.0333C11.8928 25.4483 11.918 26.0596 12.303 26.4445L13.5555 27.697C13.9404 28.082 14.5507 28.1071 14.9667 27.756L15.9638 26.9127C16.3188 26.6119 16.7802 26.5403 17.2164 26.7221C17.6526 26.903 17.9283 27.2792 17.9669 27.7425L18.0753 29.0434C18.1207 29.5851 18.5705 30 19.114 30H20.886C21.4295 30 21.8803 29.586 21.9247 29.0434L22.0331 27.7425C22.0718 27.2792 22.3464 26.903 22.7836 26.7221C23.2198 26.5403 23.6812 26.6118 24.0362 26.9127L25.0333 27.756C25.4483 28.1072 26.0596 28.082 26.4445 27.697L27.697 26.4445C28.082 26.0596 28.1071 25.4493 27.756 25.0333L26.9127 24.0371C26.6119 23.6822 26.5403 23.2208 26.7221 22.7836C26.903 22.3474 27.2792 22.0717 27.7425 22.0331L29.0434 21.9247C29.5851 21.8793 30 21.4295 30 20.886V19.114C30 18.5705 29.586 18.1198 29.0434 18.0753L27.7425 17.9669C27.2792 17.9282 26.903 17.6536 26.7221 17.2164C26.5403 16.7802 26.6118 16.3178 26.9127 15.9629L27.756 14.9667C28.1072 14.5517 28.082 13.9404 27.697 13.5555L26.4445 12.303C26.0596 11.918 25.4493 11.8929 25.0333 12.244L24.0362 13.0873C23.6812 13.3881 23.2198 13.4597 22.7836 13.2779C22.3474 13.097 22.0717 12.7208 22.0331 12.2575L21.9247 10.9566C21.8793 10.4149 21.4295 10 20.886 10H19.114C18.5705 10 18.1198 10.414 18.0753 10.9566L17.9669 12.2575C17.9282 12.7208 17.6536 13.097 17.2164 13.2779C16.7802 13.4597 16.3188 13.3882 15.9638 13.0873L14.9667 12.244C14.5517 11.8928 13.9404 11.918 13.5555 12.303L12.303 13.5555C11.918 13.9404 11.8929 14.5507 12.244 14.9667L13.0873 15.9629C13.3881 16.3188 13.4597 16.7802 13.2779 17.2164ZM19.0095 21.9944C19.0095 21.7565 18.8954 21.5524 18.6932 21.4277C17.9842 20.9895 17.5113 20.2051 17.5113 19.3095C17.5113 18.439 17.9581 17.6739 18.6342 17.229C18.731 17.1651 18.847 17.1603 18.9495 17.2154C19.0521 17.2706 19.1111 17.3702 19.1111 17.4863V19.029C19.1111 19.1924 19.1923 19.3327 19.3335 19.4139L19.7765 19.6693C19.9177 19.7505 20.0793 19.7505 20.2205 19.6693L20.6635 19.4139C20.8047 19.3327 20.8859 19.1925 20.8859 19.029V17.4863C20.8859 17.3702 20.9459 17.2706 21.0475 17.2154C21.15 17.1603 21.266 17.1652 21.3628 17.229C22.0398 17.6739 22.4857 18.439 22.4857 19.3095C22.4857 20.2041 22.0127 20.9895 21.3038 21.4277C21.1016 21.5524 20.9875 21.7565 20.9875 21.9944V24.1784C20.6703 24.2539 20.3385 24.2935 19.998 24.2935C19.6576 24.2935 19.3258 24.2539 19.0086 24.1784L19.0095 21.9944ZM19.9989 15.3517C22.5659 15.3517 24.6473 17.4331 24.6473 20C24.6473 22.5669 22.5658 24.6483 19.9989 24.6483C17.4321 24.6483 15.3506 22.5669 15.3506 20C15.3506 17.4331 17.4321 15.3517 19.9989 15.3517Z" fill="white"/>
</svg>
