<svg width="91" height="91" viewBox="0 0 91 91" fill="none" xmlns="http://www.w3.org/2000/svg">
<path d="M39.5983 90.1867C37.1374 90.1945 34.7858 89.1906 33.0866 87.4094C29.5554 83.6828 29.5554 77.8469 33.0866 74.1164L37.5671 69.4484L10.5941 69.4523C9.76596 69.4523 9.09408 68.7804 9.09408 67.9523V36.5733C6.63708 37.3975 3.92218 36.8194 2.01598 35.0616C0.711284 33.8389 -0.0192155 32.128 0.000384502 30.3428C0.0160105 28.6319 0.762104 27.003 2.04728 25.8701L27.7623 1.87013C30.4771 -0.625975 34.6529 -0.622074 37.3639 1.87403L45.2467 9.22953L45.2428 7.19833C45.2428 6.37021 45.9147 5.69833 46.7428 5.69833H56.4694C57.2975 5.69833 57.9694 6.37021 57.9694 7.19833V21.1083L63.0983 25.8974V25.8935C64.1022 26.8076 64.778 28.0224 65.0241 29.3544C69.6921 27.6161 74.8718 27.8935 79.3291 30.1083C79.7588 30.3232 80.0595 30.7255 80.1416 31.1942C80.2236 31.663 80.0791 32.1435 79.747 32.4911L67.704 45.0851L68.7392 50.4445L73.8212 51.5461L85.9422 38.9951C86.286 38.6397 86.7899 38.4756 87.2781 38.5615C87.7703 38.6436 88.1844 38.9678 88.3914 39.4209C90.0242 43.1748 90.5203 47.3232 89.8133 51.3549C89.1024 55.3861 87.2235 59.1205 84.4031 62.0849C79.1648 67.7451 71.7741 69.9052 64.9111 67.8427L46.1141 87.4087C44.4149 89.1899 42.0592 90.1946 39.5983 90.1867ZM41.9538 69.2097L35.2468 76.198C32.821 78.7566 32.821 82.7683 35.2468 85.3308C36.3835 86.5144 37.9538 87.1863 39.5984 87.1863C41.243 87.1863 42.8132 86.5144 43.9539 85.3308L63.3989 65.0808C63.809 64.655 64.4341 64.5066 64.9887 64.7058C70.9575 66.8503 77.5547 65.0652 82.1997 60.0417V60.0456C86.5903 55.4558 88.2114 48.8816 86.4575 42.7796L75.3985 54.2326C75.0391 54.6076 74.5079 54.7678 74.0001 54.6584L67.1368 53.1701C66.5508 53.0412 66.0938 52.5764 65.9806 51.9904L64.6095 44.8966C64.5196 44.42 64.6642 43.9239 65.0001 43.5724L76.0741 31.9944C72.203 30.6858 67.9647 31.01 64.3401 32.8967C64.2151 32.9866 64.0784 33.0569 63.9339 33.1077C62.7269 33.76 61.598 34.5452 60.5667 35.4436C60.2659 35.7053 59.9768 35.9748 59.6956 36.2483V36.2522C59.5745 36.4436 59.4182 36.6037 59.2268 36.7248C56.9885 39.0217 55.4143 41.881 54.676 45.0021C53.9377 48.1232 54.0627 51.3849 55.0354 54.4396C55.2112 54.9709 55.0823 55.549 54.6956 55.9513L42.4376 68.7093C42.3165 68.9125 42.153 69.0847 41.9538 69.2097ZM26.2858 66.4519H38.8448L38.8487 50.7879C38.9385 49.0652 38.3174 47.3777 37.1299 46.1238C35.9424 44.8738 34.294 44.1629 32.5674 44.1629C30.8408 44.1629 29.1885 44.8739 28.001 46.1238C26.8135 47.3777 26.1963 49.0652 26.2862 50.7879L26.2858 66.4519ZM12.0978 66.4519H23.2858V50.7879C23.1959 48.2684 24.1334 45.8231 25.8835 44.0067C27.6335 42.1942 30.0476 41.1669 32.5671 41.1669C35.0866 41.1669 37.5007 42.1942 39.2507 44.0067C41.0007 45.8231 41.9382 48.2684 41.8484 50.7879V64.9949L51.9264 54.4949C50.2155 48.2293 51.5631 41.5179 55.5631 36.3969C54.7818 36.0805 54.0709 35.6157 53.4733 35.0219L32.5633 15.5419L12.0943 34.6239L12.0978 66.4519ZM32.5588 3.00292C31.5432 2.9912 30.5627 3.37011 29.8166 4.05762L4.06658 28.0886C3.39861 28.6667 3.01188 29.5027 3.00018 30.3855C2.98847 31.3308 3.37909 32.2371 4.07438 32.8777C5.63298 34.2839 8.00409 34.2839 9.56269 32.8777L9.58222 32.8621L31.5392 12.3971C32.1134 11.858 33.008 11.858 33.5822 12.3971L55.5512 32.8741C56.1645 33.4522 56.9496 33.8194 57.7856 33.9171C58.0512 33.6632 58.3208 33.4171 58.5981 33.1749C59.684 32.2296 60.8637 31.4015 62.1137 30.6983C62.1879 29.7139 61.8012 28.753 61.0668 28.0967L45.8248 13.8697C45.7545 13.8189 45.692 13.7564 45.6334 13.6939L35.3134 4.06112C34.5634 3.36971 33.5783 2.99122 32.5588 3.00292ZM48.2468 12.0302L54.9734 18.3075V8.69812H48.2468V12.0302Z" fill="#155DFC"/>
</svg>
