<svg xmlns="http://www.w3.org/2000/svg" viewBox="18 18 64 64" fill="currentColor" aria-hidden="true">
  <path d="M57.88,41.87h0L47,52.75l-4.88-4.88a3,3,0,0,0-4.24,4.24l5.33,5.33a5.37,5.37,0,0,0,7.59,0L62.12,46.11a3,3,0,0,0,0-4.24A3.07,3.07,0,0,0,57.88,41.87Z"/>
  <path d="M75.7,39A3,3,0,0,0,79,36V30a9,9,0,0,0-9-9H64.17A3.12,3.12,0,0,0,61,23.7,3,3,0,0,0,64,27h6a3,3,0,0,1,3,3v5.83A3.12,3.12,0,0,0,75.7,39Z"/>
  <path d="M23.7,39A3,3,0,0,0,27,36V30a3,3,0,0,1,3-3h5.83A3.12,3.12,0,0,0,39,24.3,3,3,0,0,0,36,21H30a9,9,0,0,0-9,9v5.83A3.12,3.12,0,0,0,23.7,39Z"/>
  <path d="M30,79h6a3,3,0,0,0,3-3.3A3.12,3.12,0,0,0,35.83,73H30a3,3,0,0,1-3-3V64.17A3.12,3.12,0,0,0,24.3,61H24a3,3,0,0,0-2,.78A3,3,0,0,0,21,64v6A9,9,0,0,0,30,79Z"/>
  <path d="M64,79h6a9,9,0,0,0,9-9V64a3,3,0,0,0-1-2.22A3,3,0,0,0,75.7,61,3.12,3.12,0,0,0,73,64.17V70a3,3,0,0,1-3,3H64.17A3.12,3.12,0,0,0,61,75.7,3,3,0,0,0,64,79Z"/>
</svg>
