<svg xmlns="http://www.w3.org/2000/svg" viewBox="0 0 24 30" x="0px" y="0px"><g data-name="Layer 2"><path d="M22.123,7.9539a3.0682,3.0682,0,0,0-3.1845-.7392A1.7029,1.7029,0,0,1,16.7646,5.038a3.03,3.03,0,0,0-4.97-3.1888L4.9256,8.7269l-.0008,0-.0005.0008L1.877,11.7792a2.9985,2.9985,0,0,0,0,4.238,3.07,3.07,0,0,0,3.1845.7393,1.7028,1.7028,0,0,1,2.1739,2.1766,3.082,3.082,0,0,0,.7382,3.1888,2.988,2.988,0,0,0,4.2315,0l9.9179-9.93a2.9985,2.9985,0,0,0,0-4.238ZM20.709,10.775,10.79,20.706a1.0136,1.0136,0,0,1-1.4023,0A1.0689,1.0689,0,0,1,9.12,19.6039,3.7016,3.7016,0,0,0,5.624,14.657a3.6753,3.6753,0,0,0-1.2324.2122,1.0674,1.0674,0,0,1-1.1006-.2679.9937.9937,0,0,1,0-1.4052l2.3415-2.3444,3.3724,3.3761a1.0006,1.0006,0,0,0,1.414-1.416L7.0466,9.4359,13.21,3.2651a1.0137,1.0137,0,0,1,1.4023,0A1.0689,1.0689,0,0,1,14.88,4.3672a3.7038,3.7038,0,0,0,4.7285,4.7347A1.0651,1.0651,0,0,1,20.709,9.37a.9937.9937,0,0,1,0,1.4052Zm-7.502,4.8286A1.0005,1.0005,0,1,1,11.793,17.02l-.5-.5006a1.0006,1.0006,0,0,1,1.414-1.416Z"/></g><text x="0" y="39" fill="#000000" font-size="5px" font-weight="bold" font-family="'Helvetica Neue', Helvetica, Arial-Unicode, Arial, Sans-serif">Created by Hary Murdiono JS</text><text x="0" y="44" fill="#000000" font-size="5px" font-weight="bold" font-family="'Helvetica Neue', Helvetica, Arial-Unicode, Arial, Sans-serif">from the Noun Project</text></svg>