<svg width="22" height="22" viewBox="0 0 22 22" fill="none" xmlns="http://www.w3.org/2000/svg">
<path fill-rule="evenodd" clip-rule="evenodd" d="M18.487 6.04776L10.487 9.04776C10.194 9.15776 10 9.43676 10 9.74976V20.7498C10 20.9958 10.121 21.2258 10.323 21.3658C10.525 21.5068 10.783 21.5388 11.013 21.4518C11.013 21.4518 16.459 19.4098 18.364 18.6958C19.048 18.4388 19.5 17.7858 19.5 17.0568C19.5 15.4778 19.5 11.7498 19.5 11.7498C19.5 11.3358 19.164 10.9998 18.75 10.9998C18.336 10.9998 18 11.3358 18 11.7498V17.0568C18 17.1608 17.935 17.2538 17.838 17.2908L11.5 19.6678V10.2698L19.013 7.45176C19.401 7.30676 19.598 6.87376 19.452 6.48676C19.307 6.09876 18.874 5.90176 18.487 6.04776Z" fill="black"/>
<path fill-rule="evenodd" clip-rule="evenodd" d="M2.48719 7.45176L10.0002 10.2698V19.6678L3.66219 17.2908C3.56519 17.2538 3.50019 17.1608 3.50019 17.0568V11.7498C3.50019 11.3358 3.16419 10.9998 2.75019 10.9998C2.33619 10.9998 2.00019 11.3358 2.00019 11.7498C2.00019 11.7498 2.00019 15.4778 2.00019 17.0568C2.00019 17.7858 2.45219 18.4388 3.13619 18.6958L10.4872 21.4518C10.7172 21.5388 10.9752 21.5068 11.1772 21.3658C11.3792 21.2258 11.5002 20.9958 11.5002 20.7498V9.74976C11.5002 9.43676 11.3062 9.15776 11.0132 9.04776L3.01319 6.04776C2.62619 5.90176 2.19319 6.09876 2.04819 6.48676C1.90219 6.87376 2.09919 7.30676 2.48719 7.45176Z" fill="black"/>
<path fill-rule="evenodd" clip-rule="evenodd" d="M19.4211 6.41474C19.2491 6.07074 18.8461 5.91274 18.4871 6.04774L10.4871 9.04774C10.2881 9.12174 10.1301 9.27774 10.0521 9.47574C9.97412 9.67374 9.98412 9.89474 10.0791 10.0847L12.0791 14.0847C12.2511 14.4287 12.6541 14.5867 13.0131 14.4517L21.0131 11.4517C21.2121 11.3777 21.3701 11.2217 21.4481 11.0237C21.5261 10.8257 21.5161 10.6047 21.4211 10.4147L19.4211 6.41474ZM18.3811 7.68874L19.7071 10.3397L13.1191 12.8107L11.7931 10.1597L18.3811 7.68874Z" fill="black"/>
<path fill-rule="evenodd" clip-rule="evenodd" d="M3.01312 6.04774C2.65412 5.91274 2.25112 6.07074 2.07912 6.41474L0.0791164 10.4147C-0.0158836 10.6047 -0.0258836 10.8257 0.0521164 11.0237C0.130116 11.2217 0.288116 11.3777 0.487116 11.4517L8.48712 14.4517C8.84612 14.5867 9.24912 14.4287 9.42112 14.0847L11.4211 10.0847C11.5161 9.89474 11.5261 9.67374 11.4481 9.47574C11.3701 9.27774 11.2121 9.12174 11.0131 9.04774L3.01312 6.04774ZM3.11912 7.68874L9.70712 10.1597L8.38112 12.8107L1.79312 10.3397L3.11912 7.68874Z" fill="black"/>
<path fill-rule="evenodd" clip-rule="evenodd" d="M3.01319 7.45174L6.51319 6.13974C6.90119 5.99374 7.09819 5.56174 6.95219 5.17374C6.80719 4.78674 6.37419 4.58974 5.98719 4.73474L2.48719 6.04774C2.09919 6.19274 1.90219 6.62574 2.04819 7.01274C2.19319 7.40074 2.62619 7.59774 3.01319 7.45174Z" fill="black"/>
<path fill-rule="evenodd" clip-rule="evenodd" d="M14.9872 6.13974L18.4872 7.45174C18.8742 7.59774 19.3072 7.40074 19.4522 7.01274C19.5982 6.62574 19.4012 6.19274 19.0132 6.04774L15.5132 4.73474C15.1262 4.58974 14.6932 4.78674 14.5482 5.17374C14.4022 5.56174 14.5992 5.99374 14.9872 6.13974Z" fill="black"/>
<path fill-rule="evenodd" clip-rule="evenodd" d="M11.5 6.24976V1.24976C11.5 0.835756 11.164 0.499756 10.75 0.499756C10.336 0.499756 10 0.835756 10 1.24976V6.24976C10 6.66376 10.336 6.99976 10.75 6.99976C11.164 6.99976 11.5 6.66376 11.5 6.24976Z" fill="black"/>
<path fill-rule="evenodd" clip-rule="evenodd" d="M8.78024 3.77975L10.7502 1.81075L12.7202 3.77975C13.0122 4.07275 13.4882 4.07275 13.7802 3.77975C14.0732 3.48775 14.0732 3.01175 13.7802 2.71975L11.2802 0.21975C10.9872 -0.07325 10.5132 -0.07325 10.2202 0.21975L7.72024 2.71975C7.42724 3.01175 7.42724 3.48775 7.72024 3.77975C8.01224 4.07275 8.48824 4.07275 8.78024 3.77975Z" fill="black"/>
</svg>
