<svg width="95" height="92" viewBox="0 0 95 92" fill="none" xmlns="http://www.w3.org/2000/svg">
<path d="M36.2617 0.00841072C36 -0.0189333 35.7344 0.0201297 35.4922 0.129501L0.875183 15.5865C0.465023 15.7701 0.156433 16.1295 0.0470631 16.567C-0.0662169 17.0006 0.0275321 17.4654 0.300973 17.8209L10.602 31.3599L0.300973 44.8949V44.8988C0.0314431 45.2542 -0.0584068 45.7152 0.0548832 46.1488C0.164263 46.5785 0.468943 46.9378 0.875193 47.1214L10.9802 51.637V74.676V74.6721C10.9841 74.7268 10.988 74.7815 10.9997 74.8323C11.0075 74.9182 11.0232 74.9964 11.0466 75.0784C11.07 75.1604 11.1013 75.2424 11.1403 75.3206C11.1599 75.3635 11.1833 75.4026 11.2068 75.4417C11.2693 75.5432 11.3435 75.6409 11.4333 75.7229C11.4646 75.7503 11.4958 75.7776 11.531 75.801C11.6169 75.8753 11.7146 75.9378 11.8161 75.9885C11.8279 75.9964 11.8396 76.0042 11.8474 76.0081L11.8786 76.0237V76.0276H11.8864L46.4024 91.4496V91.4535C46.5314 91.516 46.672 91.559 46.8126 91.5824C46.8478 91.5863 46.879 91.5902 46.9103 91.5941C46.961 91.6019 47.0118 91.6059 47.0626 91.6098C47.2696 91.6098 47.4728 91.5629 47.6603 91.477L82.2773 76.0119H82.2812C82.3359 75.9846 82.3905 75.9534 82.4452 75.9182C82.4687 75.9065 82.496 75.8909 82.5194 75.8752C82.578 75.8323 82.6366 75.7854 82.6913 75.7307C82.7069 75.719 82.7226 75.7034 82.7343 75.6877C82.789 75.637 82.8358 75.5784 82.8788 75.5198C82.8905 75.4963 82.9062 75.4768 82.9218 75.4534C82.9608 75.3909 82.996 75.3244 83.0233 75.258C83.0312 75.2385 83.039 75.2229 83.0429 75.2034C83.0741 75.1252 83.1015 75.0471 83.1171 74.9651C83.121 74.9534 83.121 74.9455 83.121 74.9338C83.1366 74.844 83.1483 74.7541 83.1483 74.6643V51.6373L93.2423 47.1256C93.6525 46.942 93.9533 46.5826 94.0666 46.149C94.1759 45.7154 94.0861 45.2584 93.8166 44.899L83.5196 31.364L93.8166 17.829V17.8251C94.09 17.4697 94.1838 17.0048 94.0705 16.5712C93.9611 16.1337 93.6525 15.7744 93.2424 15.5908L58.6374 0.133761C58.0163 -0.143579 57.2819 0.0400103 56.8679 0.57907L47.0671 13.4661L37.2624 0.57907C37.0202 0.26266 36.6608 0.0595403 36.2624 0.0126603L36.2617 0.00841072ZM35.6211 3.28961L44.7695 15.3096L12.9105 29.5396L3.76989 17.5196L35.6211 3.28961ZM58.4961 3.28961L90.3551 17.5196L81.2145 29.5396L49.3515 15.3126L58.4961 3.28961ZM47.0661 17.5086L78.0781 31.3566L47.0661 45.2086L16.0541 31.3566L47.0661 17.5086ZM12.9181 33.1686L44.7661 47.4066L35.6216 59.4296L3.77359 45.1996L12.9181 33.1686ZM81.2111 33.1686L90.3556 45.1956L58.4966 59.4256L49.3599 47.3986L81.2111 33.1686ZM48.5271 51.1726L56.863 62.1336H56.8669C57.2771 62.6805 58.0114 62.868 58.6364 62.5906L80.2064 52.95V73.716L48.5304 87.868L48.5271 51.1726ZM45.5857 51.1882V87.8642L13.9097 73.7162V52.9462L35.4917 62.5907V62.5946C36.1167 62.872 36.8472 62.6806 37.2612 62.1376L45.5857 51.1882Z" fill="black"/>
</svg>
