<svg width="15" height="17" viewBox="0 0 15 17" fill="none" xmlns="http://www.w3.org/2000/svg">
<path d="M10.4526 0.0163836C10.2384 -0.00796839 9.46218 -0.00280179 9.29307 0.0163836C9.1557 0.0318798 9.01389 0.158064 8.97623 0.290884L8.79234 0.926235C8.74729 1.0812 8.5848 1.24428 8.43342 1.3011C8.3544 1.33062 8.27685 1.36309 8.20004 1.39777C8.05233 1.46418 7.82265 1.46418 7.68159 1.38596L7.10184 1.06645C6.98072 1.00003 6.79093 1.01036 6.6831 1.0967C6.37956 1.33799 6.10483 1.61325 5.86334 1.91578C5.77767 2.02352 5.76659 2.21316 5.83306 2.33417L6.15284 2.91344C6.23113 3.05512 6.23113 3.2846 6.16392 3.43219C6.12921 3.50894 6.09671 3.58716 6.06717 3.66538C6.01031 3.81665 5.84708 3.979 5.692 4.02326L5.05612 4.20701C4.92318 4.24538 4.79689 4.38706 4.78139 4.52358C4.73265 4.95156 4.74299 5.3434 4.78139 5.68211C4.7969 5.81936 4.92319 5.96105 5.05612 5.99868L5.692 6.18242C5.84709 6.22743 6.0103 6.38978 6.06717 6.54104C6.09745 6.62 6.12921 6.69748 6.16392 6.77496C6.23039 6.92255 6.23039 7.15204 6.15284 7.29372L5.83306 7.87298C5.76659 7.994 5.77693 8.18364 5.86334 8.29137C6.10483 8.59466 6.38032 8.86916 6.68384 9.11046C6.79167 9.19605 6.98147 9.20712 7.10184 9.14071L7.68159 8.82119C7.82339 8.74298 8.05306 8.74298 8.20078 8.80939C8.26798 8.83964 8.34627 8.87285 8.43489 8.90605C8.58629 8.96287 8.74878 9.12596 8.79381 9.28092L8.97697 9.91627C9.01537 10.0491 9.15717 10.1753 9.29454 10.1908C9.72288 10.2395 10.115 10.2291 10.454 10.1908C10.5914 10.1753 10.7332 10.0491 10.7709 9.91627L10.9548 9.28092C10.9998 9.12596 11.1623 8.96288 11.3137 8.90605C11.3927 8.87654 11.471 8.84407 11.5478 8.80939C11.6955 8.74298 11.9252 8.74298 12.067 8.82119L12.6467 9.13997C12.7678 9.20639 12.9576 9.19679 13.0662 9.1112C13.3698 8.86991 13.6401 8.5917 13.8838 8.28989C13.9702 8.18215 13.9827 7.99398 13.9155 7.87297L13.5958 7.2937C13.5175 7.15202 13.5175 6.92254 13.5847 6.77495C13.615 6.7078 13.6482 6.62958 13.6814 6.54102C13.7383 6.38975 13.9008 6.2274 14.0566 6.1824L14.6925 5.99866C14.8254 5.96029 14.9517 5.81861 14.9672 5.68209C15.0159 5.2541 15.0056 4.86227 14.9672 4.52356C14.9517 4.38631 14.8254 4.24462 14.6925 4.20699L14.0536 4.02399C13.8986 3.97898 13.7353 3.81663 13.6785 3.6661C13.6482 3.58715 13.6164 3.50967 13.5817 3.43292C13.5153 3.28533 13.5153 3.05584 13.5928 2.91416L13.9126 2.3349C13.9791 2.21388 13.9687 2.02498 13.883 1.91651C13.6416 1.61322 13.3661 1.33798 13.0633 1.09669C12.9547 1.01109 12.7657 1.00076 12.6445 1.06717L12.0648 1.38669C11.923 1.46491 11.6933 1.46491 11.5456 1.39849C11.4688 1.36381 11.3905 1.33134 11.3122 1.30183C11.1608 1.24501 10.9983 1.08192 10.9533 0.92696L10.7694 0.29161C10.731 0.158785 10.5892 0.0325994 10.4526 0.017109L10.4526 0.0163836ZM9.87281 3.08461C10.9887 3.08461 11.8941 3.98857 11.8935 5.10365C11.8935 6.21863 10.9888 7.12325 9.87281 7.12325C8.75681 7.12325 7.85153 6.21856 7.85153 5.10365C7.85153 3.98792 8.75624 3.08404 9.87281 3.08461ZM2.14917 8.06476C2.08418 8.07214 2.01771 8.13191 1.99925 8.19463L1.9121 8.49496C1.89069 8.56801 1.81388 8.64476 1.74298 8.67206C1.70531 8.68608 1.66839 8.70158 1.6322 8.71781C1.56278 8.74954 1.45421 8.7488 1.387 8.71191L1.11301 8.56137C1.05614 8.52964 0.966044 8.53481 0.91508 8.57539C0.771805 8.68977 0.641826 8.81891 0.527348 8.9628C0.486729 9.01372 0.481558 9.10374 0.512577 9.16057L0.663976 9.43433C0.700902 9.50148 0.700902 9.60996 0.669145 9.67933C0.652898 9.71548 0.637388 9.75238 0.623356 9.79001C0.59603 9.86159 0.519223 9.93834 0.446108 9.95974L0.145535 10.0468C0.0827597 10.0653 0.022938 10.1317 0.0155531 10.1966C-0.00734064 10.3988 -0.00291011 10.584 0.0155531 10.7441C0.0229385 10.8091 0.0827597 10.8755 0.145535 10.8939L0.446108 10.981C0.519223 11.0024 0.59603 11.0792 0.623356 11.1507C0.637388 11.1884 0.652897 11.2253 0.669145 11.2614C0.700163 11.3308 0.700902 11.4393 0.663976 11.5064L0.512577 11.7802C0.48082 11.837 0.485991 11.927 0.527348 11.9779C0.64182 12.1211 0.771807 12.251 0.91508 12.3654C0.966038 12.4059 1.0554 12.4111 1.11301 12.3794L1.387 12.2288C1.45421 12.1919 1.56277 12.1919 1.6322 12.2229C1.66396 12.237 1.70088 12.2532 1.74298 12.2687C1.81462 12.296 1.89143 12.3727 1.9121 12.4458L1.99925 12.7469C2.01771 12.8096 2.08418 12.8694 2.14917 12.876C2.35153 12.8989 2.53764 12.8944 2.69716 12.876C2.76215 12.8686 2.82861 12.8088 2.84708 12.7469L2.93422 12.4458C2.95564 12.3727 3.03245 12.296 3.10409 12.2687C3.14175 12.2547 3.17794 12.2392 3.21413 12.2229C3.28355 12.1912 3.39285 12.1919 3.46006 12.2288L3.73405 12.3794C3.79092 12.4111 3.88102 12.4059 3.93198 12.3661C4.07526 12.2525 4.20376 12.1204 4.31898 11.9772C4.3596 11.9263 4.36551 11.837 4.33449 11.7802L4.18309 11.5064C4.14616 11.4393 4.14616 11.3308 4.17792 11.2614C4.19195 11.2297 4.20746 11.1928 4.22371 11.1507C4.2503 11.0792 4.32784 11.0031 4.40096 10.9817L4.70153 10.8947C4.76431 10.8762 4.82413 10.8098 4.83151 10.7449C4.85441 10.5427 4.84998 10.3575 4.83151 10.1973C4.82413 10.1324 4.76431 10.066 4.70153 10.0476L4.40096 9.96048C4.32784 9.93908 4.25104 9.86233 4.22371 9.79075C4.20968 9.75312 4.19417 9.71696 4.17792 9.68007C4.1469 9.6107 4.14616 9.50149 4.18309 9.43507L4.33449 9.16131C4.36625 9.10449 4.36107 9.01446 4.31972 8.96354C4.20525 8.82039 4.076 8.69051 3.93199 8.57613C3.88103 8.53555 3.79093 8.53038 3.73405 8.56211L3.45933 8.71265C3.39212 8.74954 3.28356 8.74954 3.21413 8.71855C3.17794 8.70232 3.14101 8.68682 3.10409 8.6728C3.03245 8.6455 2.95564 8.56875 2.93423 8.4957L2.84708 8.19462C2.82861 8.1319 2.76215 8.07213 2.69716 8.06548C2.59598 8.05368 2.22892 8.05663 2.14917 8.06548L2.14917 8.06476ZM2.42316 9.51477C2.95122 9.51477 3.37883 9.94202 3.37883 10.4696C3.37883 10.9973 2.95122 11.4245 2.42316 11.4245C1.89511 11.4245 1.4675 10.9973 1.4675 10.4696C1.4675 9.94202 1.89511 9.51477 2.42316 9.51477ZM7.24127 10.1243C7.14895 10.1346 7.05294 10.2195 7.02783 10.3095L6.90376 10.7375C6.87348 10.8423 6.76344 10.9515 6.66227 10.9899C6.6091 11.0098 6.55666 11.0312 6.50496 11.0548C6.406 11.0998 6.2509 11.0998 6.15489 11.0474L5.76421 10.832C5.68297 10.7869 5.5552 10.7943 5.48209 10.8519C5.27752 11.0142 5.09215 11.1994 4.92966 11.4038C4.87206 11.4769 4.86467 11.6038 4.90972 11.685L5.12537 12.0754C5.1778 12.1705 5.1778 12.3255 5.13275 12.4251C5.10912 12.4768 5.0877 12.5292 5.06776 12.5823C5.02936 12.6841 4.92006 12.7941 4.81519 12.8243L4.38685 12.9476C4.29749 12.9734 4.21256 13.0686 4.20148 13.1608C4.16825 13.4493 4.17563 13.7135 4.20148 13.9415C4.21182 14.0338 4.29675 14.1297 4.38685 14.1548L4.81519 14.278C4.92007 14.3083 5.02936 14.4182 5.0685 14.5201C5.08844 14.5732 5.10986 14.6256 5.13349 14.6772C5.17854 14.7761 5.17854 14.9311 5.12537 15.027L4.90972 15.4174C4.86467 15.4985 4.87206 15.6262 4.92966 15.6985C5.09214 15.9029 5.2775 16.0881 5.48209 16.2505C5.5552 16.308 5.68223 16.3154 5.76421 16.2704L6.15489 16.0549C6.25016 16.0026 6.40525 16.0026 6.50423 16.0476C6.54928 16.0682 6.60245 16.0904 6.66227 16.1132C6.76419 16.1516 6.87349 16.2608 6.90376 16.3656L7.02784 16.7936C7.05368 16.8829 7.14895 16.9677 7.24127 16.9781C7.53003 17.0105 7.79443 17.0039 8.02263 16.9781C8.11495 16.9677 8.21096 16.8829 8.23681 16.7936L8.36088 16.3656C8.39116 16.2608 8.50046 16.1516 8.60237 16.1125C8.65554 16.0926 8.70798 16.0712 8.76042 16.0476C8.85938 16.0026 9.01448 16.0026 9.11049 16.0549L9.50117 16.2704C9.58241 16.3154 9.71092 16.3088 9.78329 16.2505C9.98786 16.0881 10.1703 15.9 10.3342 15.697C10.3926 15.6247 10.4007 15.4978 10.3557 15.4166L10.1407 15.0263C10.0883 14.9311 10.0883 14.7761 10.1326 14.6765C10.1533 14.6315 10.1755 14.5791 10.1984 14.5193C10.2368 14.4175 10.3461 14.3083 10.4509 14.278L10.8793 14.1548C10.9686 14.129 11.0536 14.0338 11.0646 13.9415C11.0979 13.653 11.0905 13.3888 11.0646 13.1608C11.0543 13.0686 10.9694 12.9727 10.8793 12.9476L10.4509 12.8243C10.3461 12.7941 10.2368 12.6841 10.1984 12.5823C10.1784 12.5292 10.1563 12.4768 10.1326 12.4251C10.0876 12.3263 10.0876 12.1713 10.1407 12.0754L10.3557 11.685C10.4007 11.6038 10.3933 11.4762 10.3357 11.4038C10.1732 11.1995 9.98788 11.0142 9.78329 10.8519C9.71018 10.7943 9.58241 10.7869 9.50117 10.832L9.11049 11.0474C9.01522 11.0998 8.86013 11.0998 8.76116 11.0548C8.70946 11.0312 8.65702 11.0098 8.60311 10.9899C8.50119 10.9515 8.39189 10.8415 8.36162 10.7375L8.23754 10.3095C8.2117 10.2202 8.11643 10.1354 8.02337 10.1243C7.87862 10.1081 7.35649 10.111 7.24201 10.1243L7.24127 10.1243ZM7.63195 12.1911C8.38378 12.1911 8.9938 12.8007 8.99306 13.5518C8.99306 14.3031 8.38376 14.9118 7.63195 14.9118C6.88012 14.9118 6.2701 14.303 6.2701 13.5518C6.2701 12.8006 6.88014 12.1911 7.63195 12.1911Z" fill="#808080"/>
</svg>
