<svg width="63" height="66" viewBox="0 0 63 66" fill="none" xmlns="http://www.w3.org/2000/svg">
<path d="M5.63661 65.5502C4.1639 65.4816 2.76983 64.8658 1.72734 63.8233C0.684844 62.7808 0.0690053 61.3867 0.000397486 59.914V21.1933C-0.0154663 19.857 0.443971 18.5586 1.29673 17.5297C1.45401 17.3375 1.6517 17.1823 1.87575 17.0752C2.0998 16.968 2.34471 16.9115 2.59305 16.9097H37.5939C45.71 16.9097 52.9808 16.9097 60.1387 16.9097C60.3832 16.9007 60.6266 16.9466 60.851 17.0442C61.0753 17.1417 61.2749 17.2884 61.4351 17.4734C62.3209 18.509 62.8014 19.8305 62.7878 21.1933V59.6886C62.6881 61.209 62.0167 62.6353 60.9083 63.6809C59.8 64.7265 58.337 65.3138 56.8134 65.3248H6.0875L5.63661 65.5502ZM3.2694 20.4606C3.21553 20.7587 3.21553 21.0642 3.2694 21.3623V59.6322C3.27672 59.9653 3.3496 60.2937 3.48387 60.5986C3.61814 60.9035 3.81117 61.179 4.05194 61.4093C4.29271 61.6396 4.57649 61.8202 4.88707 61.9408C5.19766 62.0614 5.52896 62.1196 5.86206 62.1121H56.5879C57.2732 62.1004 57.9296 61.8343 58.4296 61.3656C58.9296 60.8968 59.2375 60.2589 59.2933 59.5758V21.1933C59.3469 20.8761 59.3469 20.5522 59.2933 20.2351H37.9321C27.4487 20.4606 16.4018 20.5169 3.2694 20.5169V20.4606Z" fill="black"/>
<path d="M56.4748 66H6.03074C4.43129 66 2.89735 65.3646 1.76636 64.2336C0.63538 63.1027 1.23715e-06 61.5687 1.23715e-06 59.9693V19.7831C-0.000867769 18.4322 0.456095 17.1209 1.29633 16.0632L12.0615 2.36721C12.6215 1.64166 13.3381 1.05194 14.1579 0.642051C14.9777 0.232162 15.8794 0.0126858 16.7959 0H45.6533C46.5578 0.00207456 47.4498 0.211452 48.2607 0.612045C49.0717 1.01264 49.78 1.59379 50.3313 2.31085L61.0401 15.7814C61.897 16.8555 62.3728 18.1838 62.3928 19.5576V59.9693C62.3931 61.5494 61.7732 63.0665 60.6665 64.1943C59.5598 65.3221 58.0546 65.9705 56.4748 66ZM16.7959 3.38173C16.3846 3.39475 15.9821 3.5034 15.6201 3.69906C15.2581 3.89472 14.9467 4.17202 14.7105 4.50897L3.94535 18.1486C3.57184 18.6106 3.37237 19.1891 3.38173 19.7831V59.9693C3.38157 60.6771 3.65885 61.3568 4.15408 61.8626C4.64931 62.3684 5.32304 62.6599 6.03074 62.6746H56.7566C57.1119 62.6746 57.4637 62.6047 57.7919 62.4687C58.1202 62.3327 58.4184 62.1335 58.6696 61.8823C58.9208 61.631 59.1201 61.3328 59.2561 61.0046C59.392 60.6763 59.462 60.3245 59.462 59.9693V19.5576C59.4545 18.9398 59.2357 18.3431 58.842 17.8668L47.7387 4.50897C47.4854 4.19879 47.1677 3.94739 46.8076 3.77221C46.4475 3.59703 46.0537 3.50226 45.6533 3.49445L16.7959 3.38173Z" fill="black"/>
<path d="M59.2366 20.4595H3.32537C3.08142 20.5046 2.83052 20.4954 2.59049 20.4327C2.35046 20.37 2.12717 20.2552 1.93647 20.0965C1.74576 19.9379 1.5923 19.7392 1.48699 19.5145C1.38168 19.2899 1.32709 19.0449 1.32709 18.7968C1.32709 18.5487 1.38168 18.3036 1.48699 18.079C1.5923 17.8544 1.74576 17.6557 1.93647 17.497C2.12717 17.3383 2.35046 17.2236 2.59049 17.1608C2.83052 17.0981 3.08142 17.089 3.32537 17.1341H59.2366C59.4805 17.089 59.7314 17.0981 59.9714 17.1608C60.2115 17.2236 60.4348 17.3383 60.6255 17.497C60.8162 17.6557 60.9696 17.8544 61.0749 18.079C61.1802 18.3036 61.2348 18.5487 61.2348 18.7968C61.2348 19.0449 61.1802 19.2899 61.0749 19.5145C60.9696 19.7392 60.8162 19.9379 60.6255 20.0965C60.4348 20.2552 60.2115 20.37 59.9714 20.4327C59.7314 20.4954 59.4805 20.5046 59.2366 20.4595Z" fill="black"/>
<path d="M41.3134 43.2297C40.8745 43.1885 40.4659 42.9881 40.1648 42.6661C39.8636 42.3442 39.6908 41.9231 39.6789 41.4825C39.6962 39.8501 39.2068 38.2525 38.2781 36.91C37.3494 35.5674 36.0272 34.5459 34.4936 33.9863C32.7248 33.5395 30.8621 33.6397 29.1514 34.2737C27.4407 34.9076 25.9625 36.0455 24.9121 37.5371C24.643 37.8959 24.2424 38.1331 23.7985 38.1965C23.3546 38.2599 22.9036 38.1444 22.5449 37.8753C22.3647 37.7515 22.2112 37.5929 22.0935 37.4087C21.9757 37.2246 21.8961 37.0187 21.8593 36.8032C21.8225 36.5878 21.8293 36.3671 21.8793 36.1544C21.9293 35.9416 22.0215 35.741 22.1503 35.5645C23.6145 33.4461 25.7127 31.8466 28.1433 30.9959C30.5739 30.1452 33.2116 30.0871 35.6772 30.83C37.8727 31.6367 39.7629 33.1062 41.0858 35.0351C42.4087 36.964 43.0989 39.2566 43.0607 41.5952C43.0534 41.8173 43.0024 42.0358 42.9106 42.2381C42.8189 42.4405 42.6881 42.6228 42.5258 42.7746C42.3636 42.9264 42.173 43.0447 41.9649 43.1228C41.7569 43.2009 41.5355 43.2372 41.3134 43.2297Z" fill="black"/>
<path d="M23.3339 38.3262C22.8978 38.3239 22.4773 38.1638 22.1503 37.8753C21.8159 37.5689 21.6138 37.1444 21.5867 36.6917V33.7609C21.5788 33.5367 21.6171 33.3133 21.6993 33.1046C21.7815 32.8959 21.9058 32.7063 22.0644 32.5477C22.223 32.3891 22.4126 32.2649 22.6213 32.1827C22.83 32.1005 23.0534 32.0621 23.2775 32.07C23.497 32.0699 23.7143 32.114 23.9163 32.1996C24.1184 32.2852 24.3012 32.4107 24.4537 32.5685C24.6062 32.7263 24.7254 32.9132 24.8042 33.1181C24.8829 33.3229 24.9196 33.5415 24.912 33.7609V34.8881H25.8702C26.0912 34.8643 26.3147 34.8874 26.5262 34.956C26.7376 35.0246 26.9322 35.137 27.0971 35.286C27.2621 35.435 27.3937 35.6172 27.4833 35.8206C27.573 36.0239 27.6187 36.244 27.6174 36.4663C27.6327 36.6855 27.6036 36.9056 27.5318 37.1134C27.4601 37.3211 27.3472 37.5123 27.1998 37.6754C27.0525 37.8385 26.8738 37.9702 26.6744 38.0627C26.475 38.1551 26.259 38.2064 26.0393 38.2135H23.3339V38.3262Z" fill="black"/>
<path d="M31.4501 52.8676C30.2171 52.8572 28.9958 52.6282 27.8429 52.1913C25.6566 51.3878 23.7729 49.9269 22.4508 48.0093C21.1286 46.0917 20.433 43.8116 20.4595 41.4825C20.45 41.2555 20.4897 41.0292 20.5757 40.819C20.6618 40.6088 20.7922 40.4196 20.9581 40.2644C21.124 40.1092 21.3214 39.9917 21.5369 39.9198C21.7524 39.8479 21.9809 39.8234 22.2067 39.848C22.6453 39.8626 23.061 40.0472 23.366 40.3627C23.671 40.6782 23.8414 41.1 23.8412 41.5388C23.8321 43.1694 24.3247 44.7632 25.2523 46.1042C26.1799 47.4452 27.4976 48.4684 29.0265 49.035C30.7947 49.5066 32.6656 49.4183 34.3816 48.7824C36.0976 48.1465 37.5742 46.9942 38.6081 45.4842C38.8771 45.1254 39.2777 44.8883 39.7216 44.8248C40.1656 44.7614 40.6165 44.8769 40.9753 45.146C41.3309 45.4156 41.5699 45.811 41.6432 46.2512C41.7166 46.6913 41.6188 47.1429 41.3698 47.5132C40.2065 49.0748 38.7159 50.3631 37.0024 51.2881C35.2889 52.213 33.3939 52.7521 31.4501 52.8676Z" fill="black"/>
<path d="M40.0735 50.9514C39.8493 50.9593 39.6259 50.9209 39.4172 50.8387C39.2085 50.7565 39.019 50.6323 38.8604 50.4737C38.7017 50.315 38.5775 50.1255 38.4953 49.9168C38.4131 49.7081 38.3748 49.4847 38.3826 49.2605V48.1333H37.4245C37.2052 48.1485 36.9851 48.1194 36.7773 48.0477C36.5696 47.9759 36.3784 47.863 36.2153 47.7157C36.0522 47.5684 35.9205 47.3897 35.828 47.1902C35.7356 46.9908 35.6843 46.7748 35.6772 46.5551C35.6619 46.333 35.6907 46.11 35.7618 45.899C35.8329 45.688 35.945 45.4931 36.0916 45.3255C36.2382 45.1579 36.4165 45.0209 36.6163 44.9224C36.816 44.8239 37.0332 44.7659 37.2554 44.7516H39.9608C40.194 44.7271 40.4298 44.7531 40.6521 44.8279C40.8744 44.9026 41.078 45.0243 41.2491 45.1847C41.4201 45.3451 41.5547 45.5405 41.6436 45.7575C41.7325 45.9745 41.7737 46.2081 41.7644 46.4424V49.5987C41.6961 49.9916 41.4865 50.346 41.175 50.5952C40.8636 50.8443 40.4718 50.971 40.0735 50.9514Z" fill="black"/>
</svg>
