<svg width="90" height="90" viewBox="0 0 90 90" fill="none" xmlns="http://www.w3.org/2000/svg">
<path d="M87.5 0H2.5C1.1 0 0 1.1 0 2.5V87.5C0 88.9 1.1 90 2.5 90H87.5C88.9 90 90 88.9 90 87.5V2.5C90 1.1 88.9 0 87.5 0ZM50 85H40V57.5H50V85ZM85 85H55V55C55 53.6 53.9 52.5 52.5 52.5H37.5C36.1 52.5 35 53.6 35 55V85H5V5H85V85Z" fill="black"/>
<path d="M37.5 35H52.5C53.9 35 55 33.9 55 32.5V17.5C55 16.1 53.9 15 52.5 15H37.5C36.1 15 35 16.1 35 17.5V32.5C35 33.9 36.1 35 37.5 35ZM40 20H50V30H40V20Z" fill="black"/>
<path d="M12.5 35H27.5C28.9 35 30 33.9 30 32.5V17.5C30 16.1 28.9 15 27.5 15H12.5C11.1 15 10 16.1 10 17.5V32.5C10 33.9 11.1 35 12.5 35ZM15 20H25V30H15V20Z" fill="black"/>
<path d="M62.5 35H77.5C78.9 35 80 33.9 80 32.5V17.5C80 16.1 78.9 15 77.5 15H62.5C61.1 15 60 16.1 60 17.5V32.5C60 33.9 61.1 35 62.5 35ZM65 20H75V30H65V20Z" fill="black"/>
<path d="M62.5 72.5H77.5C78.9 72.5 80 71.4 80 70V55C80 53.6 78.9 52.5 77.5 52.5H62.5C61.1 52.5 60 53.6 60 55V70C60 71.4 61.1 72.5 62.5 72.5ZM65 57.5H75V67.5H65V57.5Z" fill="black"/>
<path d="M12.5 72.5H27.5C28.9 72.5 30 71.4 30 70V55C30 53.6 28.9 52.5 27.5 52.5H12.5C11.1 52.5 10 53.6 10 55V70C10 71.4 11.1 72.5 12.5 72.5ZM15 57.5H25V67.5H15V57.5Z" fill="black"/>
</svg>
