<svg width="19" height="19" viewBox="0 0 19 19" fill="none" xmlns="http://www.w3.org/2000/svg">
<path d="M6.43862 4.58613L8.27925 6.42675L8.62362 6.08238L6.78062 4.24175C6.70937 4.1705 6.78062 3.92113 6.78062 3.92113L5.53375 2.84763L5.03975 3.34163L6.11562 4.58613C6.11562 4.58613 6.37687 4.52675 6.43862 4.58613Z" fill="white"/>
<path d="M10.925 7.51688L9.71138 8.7305L12.35 11.3644C12.4008 11.4154 12.4611 11.4558 12.5275 11.4834C12.594 11.511 12.6652 11.5252 12.7371 11.5252C12.8091 11.5252 12.8803 11.511 12.9467 11.4834C13.0132 11.4558 13.0735 11.4154 13.1243 11.3644L13.5541 10.9345C13.6051 10.8837 13.6456 10.8234 13.6732 10.757C13.7008 10.6906 13.715 10.6193 13.715 10.5474C13.715 10.4754 13.7008 10.4042 13.6732 10.3378C13.6456 10.2713 13.6051 10.211 13.5541 10.1603L10.925 7.51688Z" fill="white"/>
<path d="M12.6302 4.98275C12.5616 5.05137 12.4802 5.1058 12.3905 5.14293C12.3009 5.18007 12.2048 5.19918 12.1077 5.19918C12.0107 5.19918 11.9146 5.18007 11.825 5.14293C11.7353 5.1058 11.6539 5.05137 11.5852 4.98275C11.5166 4.91414 11.4622 4.83268 11.4251 4.74303C11.3879 4.65338 11.3688 4.55729 11.3688 4.46025C11.3688 4.36322 11.3879 4.26713 11.4251 4.17748C11.4622 4.08783 11.5166 4.00637 11.5852 3.93775L12.7419 2.793C12.4848 2.67406 12.2057 2.61016 11.9225 2.60538C11.3796 2.60972 10.8602 2.82731 10.4763 3.2112C10.0924 3.59508 9.87485 4.1145 9.8705 4.65738C9.87528 4.94059 9.93918 5.21968 10.0581 5.47675L5.25113 10.2743C5.18251 10.3429 5.12808 10.4243 5.09095 10.514C5.05381 10.6036 5.0347 10.6997 5.0347 10.7968C5.0347 10.8938 5.05381 10.9899 5.09095 11.0795C5.12808 11.1692 5.18251 11.2506 5.25113 11.3193C5.31974 11.3879 5.4012 11.4423 5.49085 11.4794C5.5805 11.5166 5.67659 11.5357 5.77363 11.5357C5.87066 11.5357 5.96675 11.5166 6.0564 11.4794C6.14605 11.4423 6.22751 11.3879 6.29612 11.3193L11.1008 6.50988C11.3578 6.62882 11.6369 6.69272 11.9201 6.6975C12.463 6.69316 12.9824 6.47557 13.3663 6.09168C13.7502 5.7078 13.9678 5.18838 13.9721 4.6455C13.9644 4.36161 13.8972 4.08249 13.775 3.82613L12.6302 4.98275Z" fill="white"/>
<path d="M15.9125 0H3.0875C2.26864 0 1.48333 0.325289 0.904308 0.904308C0.325289 1.48333 0 2.26864 0 3.0875V11.6375C0 12.4564 0.325289 13.2417 0.904308 13.8207C1.48333 14.3997 2.26864 14.725 3.0875 14.725H7.54538L11.4523 18.5749C11.647 18.7716 11.9117 18.8834 12.1885 18.886C12.3374 18.8869 12.4843 18.851 12.616 18.7815C12.77 18.7011 12.8954 18.5752 12.9753 18.4209C13.0552 18.2667 13.0857 18.0915 13.0625 17.9194L12.9794 14.725H15.9125C16.7314 14.725 17.5167 14.3997 18.0957 13.8207C18.6747 13.2417 19 12.4564 19 11.6375V3.0875C19 2.26864 18.6747 1.48333 18.0957 0.904308C17.5167 0.325289 16.7314 0 15.9125 0ZM17.575 11.6375C17.575 12.0784 17.3998 12.5013 17.0881 12.8131C16.7763 13.1248 16.3534 13.3 15.9125 13.3H12.2408C12.1456 13.3 12.0513 13.319 11.9636 13.356C11.8759 13.393 11.7965 13.4472 11.7301 13.5154C11.6637 13.5835 11.6116 13.6644 11.5769 13.753C11.5423 13.8417 11.5257 13.9363 11.5283 14.0315L11.5995 16.72L8.33863 13.5042C8.20494 13.3729 8.0249 13.2995 7.8375 13.3H3.0875C2.64658 13.3 2.22371 13.1248 1.91194 12.8131C1.60016 12.5013 1.425 12.0784 1.425 11.6375V3.0875C1.425 2.64658 1.60016 2.22371 1.91194 1.91194C2.22371 1.60016 2.64658 1.425 3.0875 1.425H15.9125C16.3534 1.425 16.7763 1.60016 17.0881 1.91194C17.3998 2.22371 17.575 2.64658 17.575 3.0875V11.6375Z" fill="white"/>
</svg>
