<svg width="15" height="17" viewBox="0 0 15 17" fill="none" xmlns="http://www.w3.org/2000/svg">
<path d="M8.65617 0H0.898728C0.394179 0 0 0.496511 0 1.0885V15.3345C0 15.9265 0.394179 16.4231 0.898728 16.4231H8.37236C8.86115 16.4231 9.27109 15.9456 9.27109 15.3345V0.72567C9.25533 0.324642 8.98728 0 8.65617 0ZM3.95756 2.04333C3.95756 1.94785 4.02063 1.87146 4.09946 1.87146H5.15586C5.2347 1.87146 5.29777 1.94785 5.29777 2.04333V3.26551C5.29777 3.361 5.21893 3.43738 5.15586 3.43738H4.09946C4.02063 3.43738 3.95756 3.361 3.95756 3.26551V2.04333ZM3.95756 5.28975C3.95756 5.19427 4.02063 5.09878 4.09946 5.09878H5.15586C5.2347 5.09878 5.29777 5.19427 5.29777 5.28975V6.51193C5.29777 6.60741 5.21893 6.6838 5.15586 6.6838H4.09946C4.02063 6.6838 3.95756 6.60741 3.95756 6.51193V5.28975ZM3.95756 8.53617C3.95756 8.44068 4.02063 8.3643 4.09946 8.3643H5.15586C5.2347 8.3643 5.29777 8.44068 5.29777 8.53617V9.73925C5.29777 9.83473 5.21893 9.91112 5.15586 9.91112H4.09946C4.02063 9.91112 3.95756 9.83473 3.95756 9.73925V8.53617ZM1.37174 2.04333C1.37174 1.94785 1.43481 1.87146 1.51365 1.87146H2.57005C2.64888 1.87146 2.71195 1.94785 2.71195 2.04333V3.26551C2.71195 3.361 2.64888 3.43738 2.57005 3.43738H1.51365C1.43481 3.43738 1.37174 3.361 1.37174 3.26551V2.04333ZM1.37174 5.28975C1.37174 5.19427 1.43481 5.09878 1.51365 5.09878H2.57005C2.64888 5.09878 2.71195 5.19427 2.71195 5.28975V6.51193C2.71195 6.60741 2.64888 6.6838 2.57005 6.6838H1.51365C1.43481 6.6838 1.37174 6.60741 1.37174 6.51193V5.28975ZM2.58582 9.93022H1.52942C1.45058 9.93022 1.38751 9.85383 1.38751 9.75835V8.53617C1.38751 8.44068 1.45058 8.3643 1.52942 8.3643H2.58582C2.66465 8.3643 2.72772 8.44068 2.72772 8.53617V9.73925C2.74349 9.85383 2.68042 9.93022 2.58582 9.93022ZM4.44634 14.5707C4.44634 14.6662 4.38327 14.7426 4.30444 14.7426H2.90116C2.82232 14.7426 2.75925 14.6662 2.75925 14.5707V11.7635C2.75925 11.668 2.82232 11.5916 2.90116 11.5916H4.30444C4.38327 11.5916 4.44634 11.668 4.44634 11.7635V14.5707ZM6.51184 14.5707C6.51184 14.6662 6.44877 14.7426 6.36994 14.7426H4.96666C4.88782 14.7426 4.82475 14.6662 4.82475 14.5707V11.7635C4.82475 11.668 4.90359 11.5916 4.96666 11.5916H6.36994C6.44877 11.5916 6.51184 11.668 6.51184 11.7635V14.5707ZM7.88358 9.73925C7.88358 9.83473 7.82051 9.91112 7.74168 9.91112H6.68528C6.60644 9.91112 6.54337 9.83473 6.54337 9.73925V8.51707C6.54337 8.42159 6.60644 8.3452 6.68528 8.3452H7.74168C7.82051 8.3452 7.88358 8.42159 7.88358 8.51707V9.73925ZM7.88358 6.51193C7.88358 6.60741 7.82051 6.6838 7.74168 6.6838H6.68528C6.60644 6.6838 6.54337 6.60741 6.54337 6.51193V5.28975C6.54337 5.19427 6.60644 5.09878 6.68528 5.09878H7.74168C7.82051 5.09878 7.88358 5.19427 7.88358 5.28975V6.51193ZM7.88358 3.26551C7.88358 3.361 7.82051 3.43738 7.74168 3.43738H6.68528C6.60644 3.43738 6.54337 3.361 6.54337 3.26551V2.04333C6.54337 1.94785 6.60644 1.87146 6.68528 1.87146H7.74168C7.82051 1.87146 7.88358 1.94785 7.88358 2.04333V3.26551Z" fill="#808080"/>
<path d="M14.8211 10.3885C14.7423 9.4719 14.0958 8.78442 13.3233 8.78442H12.2669C11.4943 8.78442 10.8636 9.4719 10.769 10.4076L10.6271 11.8972C10.6113 12.0881 10.7059 12.2791 10.8636 12.3173C11.0843 12.3746 11.3208 12.4128 11.5573 12.451L11.7308 15.9456C11.7465 16.213 11.9357 16.4421 12.1565 16.4421H13.4652C13.6859 16.4421 13.8751 16.2321 13.8909 15.9456L14.0643 12.451C14.3008 12.4128 14.5216 12.3746 14.7581 12.3173C14.9157 12.2791 15.0261 12.0881 14.9946 11.8972L14.8211 10.3885Z" fill="#808080"/>
<path d="M12.8028 8.30701C13.5866 8.30701 14.2219 7.53753 14.2219 6.58832C14.2219 5.63911 13.5866 4.86963 12.8028 4.86963C12.0191 4.86963 11.3838 5.63911 11.3838 6.58832C11.3838 7.53753 12.0191 8.30701 12.8028 8.30701Z" fill="#808080"/>
</svg>
