<svg width="69" height="71" viewBox="0 0 69 71" fill="none" xmlns="http://www.w3.org/2000/svg">
<path fill-rule="evenodd" clip-rule="evenodd" d="M24.31 9.57939C29.9194 7.24739 36.1301 6.84109 41.9861 8.42319C47.8421 10.0053 53.0251 13.4896 56.7321 18.3412C56.9078 18.5717 57.111 18.7787 57.3297 18.9545L46.8457 19.0248C44.8574 19.0404 43.2559 20.6615 43.2715 22.6498C43.2832 24.6381 44.9082 26.2396 46.8965 26.224L64.8615 26.1029C65.8303 26.0951 66.756 25.7006 67.4279 25.0013C68.0998 24.302 68.4631 23.3646 68.4357 22.3958L67.8771 3.49379C67.8185 1.50939 66.1583 -0.0570079 64.174 0.00159205C62.1857 0.0601861 60.6232 1.72039 60.6818 3.70859L60.9279 12.107C56.4123 6.97029 50.4829 3.26319 43.8619 1.47399C36.4674 -0.522108 28.6279 -0.0104074 21.5499 2.93099C14.4718 5.86849 8.55791 11.0755 4.71791 17.732C0.874112 24.3922 -0.684389 32.134 0.276511 39.771C1.23745 47.4077 4.66711 54.517 10.0421 60.001C15.4171 65.485 22.4371 69.0362 30.0191 70.103C37.605 71.1733 45.3241 69.6928 51.9881 65.8999C58.6483 62.1069 63.8831 56.2124 66.8831 49.1299C67.6605 47.2979 66.805 45.1846 64.9769 44.4111C63.1449 43.6338 61.0316 44.4892 60.2542 46.3213C57.8675 51.9541 53.7073 56.6333 48.4262 59.6413C43.141 62.6491 37.0282 63.821 31.0242 62.9733C25.0203 62.1295 19.4542 59.3171 15.1842 54.9616C10.9186 50.6061 8.18811 44.9536 7.42251 38.8716C6.65689 32.7896 7.89907 26.6256 10.9537 21.3326C14.0084 16.0357 18.7076 11.9068 24.3127 9.57859L24.31 9.57939Z" fill="black"/>
</svg>
