<svg width="15" height="15" viewBox="0 0 15 15" fill="none" xmlns="http://www.w3.org/2000/svg">
<path d="M14.812 5.8067C14.7927 5.75756 14.7669 5.71119 14.7355 5.66878C14.6022 5.49821 14.4303 5.3618 14.2338 5.27081C14.0374 5.17983 13.822 5.1369 13.6057 5.14557H13.5292C13.4055 5.14237 13.2848 5.10659 13.1795 5.04182C13.0741 4.97706 12.9877 4.88562 12.929 4.77677C12.9262 4.77699 12.9234 4.77661 12.9207 4.77563C12.9181 4.77466 12.9157 4.77312 12.9137 4.77112C12.9117 4.76913 12.9101 4.76672 12.9092 4.76407C12.9082 4.76142 12.9078 4.75859 12.908 4.75578C12.8285 4.61785 12.758 4.50392 12.677 4.36599C12.6729 4.36502 12.6692 4.36274 12.6665 4.3595C12.6638 4.35625 12.6622 4.35222 12.662 4.348C12.5961 4.24025 12.5595 4.11719 12.5558 3.99098C12.5522 3.86478 12.5815 3.7398 12.641 3.62839C12.6508 3.62162 12.6591 3.61296 12.6656 3.60292C12.672 3.59289 12.6764 3.58167 12.6785 3.56993C12.7915 3.37813 12.8604 3.16359 12.8801 2.94187C12.8998 2.72016 12.8699 2.49684 12.7925 2.28813C12.7778 2.23692 12.7517 2.18975 12.716 2.1502C12.4605 1.90887 12.192 1.68166 11.9118 1.46957C11.8743 1.45158 11.8323 1.43209 11.7768 1.41111C11.5605 1.36671 11.3369 1.37356 11.1237 1.4311C10.9106 1.48863 10.7139 1.59526 10.5495 1.74242C10.5274 1.74863 10.5079 1.76177 10.494 1.7799C10.3766 1.87986 10.2265 1.93321 10.0724 1.92982C9.97937 1.92816 9.88762 1.9083 9.80229 1.87135C9.65972 1.81044 9.51278 1.76033 9.36269 1.72144C9.24479 1.67948 9.14016 1.60698 9.05949 1.51136C8.97883 1.41575 8.92502 1.30044 8.90358 1.17723C8.89929 1.15108 8.89225 1.12545 8.88258 1.10077C8.85486 0.880022 8.77406 0.669259 8.64708 0.486505C8.5201 0.303752 8.35071 0.154444 8.1534 0.051348C8.11277 0.0279767 8.06675 0.0155766 8.01987 0.0153677C7.6756 -0.00512256 7.33041 -0.00512256 6.98613 0.0153677C6.93922 0.0196132 6.89347 0.0323113 6.8511 0.0528472C6.65401 0.160807 6.48523 0.313765 6.35852 0.499258C6.2318 0.684751 6.15074 0.897531 6.12193 1.12026C6.11399 1.12762 6.10794 1.13676 6.10429 1.14694C6.10063 1.15711 6.09948 1.16802 6.10092 1.17873C6.08179 1.30282 6.02882 1.41925 5.94784 1.51525C5.86685 1.61124 5.76097 1.6831 5.64181 1.72293C5.50978 1.76041 5.35525 1.81888 5.20221 1.87285C5.11361 1.89401 5.02317 1.90657 4.93215 1.91033C4.77879 1.90888 4.63035 1.85609 4.51055 1.76041C4.49254 1.73943 4.47304 1.73943 4.45503 1.71994C4.29102 1.57205 4.09438 1.46496 3.88111 1.40739C3.66784 1.34981 3.44397 1.34338 3.22775 1.38862C3.17686 1.3899 3.12845 1.41086 3.09271 1.44709C2.80243 1.64641 2.53256 1.87389 2.28702 2.12621C2.25488 2.16819 2.2291 2.21466 2.21051 2.26414C2.12925 2.4721 2.09725 2.69603 2.11704 2.91841C2.13682 3.14078 2.20784 3.35556 2.32453 3.54594C2.33871 3.56431 2.35126 3.58387 2.36204 3.60441C2.42121 3.7159 2.45038 3.84084 2.4467 3.96698C2.44302 4.09313 2.40661 4.21616 2.34104 4.32401C2.33822 4.32379 2.33539 4.32418 2.33274 4.32515C2.33009 4.32613 2.32768 4.32766 2.32568 4.32966C2.32368 4.33166 2.32214 4.33406 2.32117 4.33671C2.32019 4.33936 2.31981 4.34219 2.32003 4.345C2.23761 4.46943 2.1644 4.5997 2.10098 4.73479C2.09816 4.73456 2.09533 4.73495 2.09268 4.73593C2.09003 4.7369 2.08762 4.73844 2.08563 4.74044C2.08363 4.74243 2.08209 4.74484 2.08111 4.74749C2.08014 4.75014 2.07975 4.75296 2.07998 4.75578C2.02472 4.86738 1.93912 4.96117 1.83297 5.0264C1.72683 5.09163 1.60444 5.12565 1.47983 5.12458H1.40182C1.1856 5.11901 0.971043 5.16363 0.775008 5.25494C0.578974 5.34625 0.406809 5.48175 0.27205 5.65079C0.236356 5.69033 0.210183 5.73751 0.195532 5.78871C0.103896 6.14625 0.038705 6.51003 0.000486284 6.87712C-0.00200934 6.92797 0.00511691 6.97883 0.0214912 7.02704C0.0917116 7.23071 0.207349 7.41577 0.359664 7.56823C0.511979 7.72068 0.696985 7.83654 0.900698 7.90706C0.926773 7.91179 0.952378 7.91881 0.977216 7.92805C1.09408 7.96862 1.19722 8.04112 1.27493 8.13731C1.35263 8.23351 1.40179 8.34954 1.41682 8.47225V8.49324C1.43182 8.64475 1.45739 8.79504 1.49334 8.94299V8.96398C1.5147 9.08746 1.50475 9.21431 1.46438 9.33295C1.42402 9.45159 1.35454 9.55823 1.26228 9.64311C1.24023 9.64931 1.22076 9.66245 1.20677 9.68059C1.04089 9.81438 0.906805 9.98329 0.814179 10.1751C0.721554 10.367 0.6727 10.577 0.671144 10.79C0.675808 10.8416 0.688461 10.8922 0.708653 10.9399C0.877434 11.2834 1.06942 11.615 1.28329 11.9324C1.29201 11.9598 1.30719 11.9847 1.32756 12.0051C1.34792 12.0254 1.37287 12.0406 1.40032 12.0493C1.58183 12.1512 1.78396 12.211 1.99174 12.2242C2.19951 12.2374 2.4076 12.2038 2.6006 12.1258C2.61411 12.1284 2.62806 12.1279 2.64134 12.1243C2.65463 12.1207 2.66688 12.114 2.67712 12.1048C2.75144 12.0792 2.82958 12.0666 2.90817 12.0673C2.99213 12.067 3.07547 12.0817 3.15423 12.1108C3.23748 12.1428 3.31538 12.1873 3.38528 12.2427L3.73036 12.5425L3.75137 12.5635C3.84614 12.6425 3.91887 12.7445 3.96251 12.8599C4.00615 12.9752 4.01921 13.0998 4.00043 13.2217C3.98609 13.2445 3.97878 13.2711 3.97942 13.2981C3.93663 13.5033 3.9386 13.7153 3.98521 13.9197C4.03181 14.1241 4.12195 14.316 4.24949 14.4825C4.28684 14.524 4.33296 14.5568 4.38452 14.5784C4.73448 14.7515 5.10155 14.8877 5.47977 14.9847C5.53547 15.0051 5.59662 15.0051 5.65232 14.9847C5.85529 14.9432 6.04649 14.8571 6.21205 14.7326C6.3776 14.6082 6.51338 14.4485 6.60954 14.2651C6.62371 14.2467 6.63627 14.2272 6.64705 14.2066C6.7032 14.094 6.79177 14.0007 6.90138 13.9387C7.01099 13.8767 7.13664 13.8489 7.26219 13.8588H7.74231C7.86675 13.8557 7.98972 13.8864 8.09806 13.9476C8.20641 14.0089 8.29606 14.0984 8.35745 14.2066C8.37163 14.225 8.38418 14.2445 8.39496 14.2651C8.49095 14.4486 8.62667 14.6084 8.79226 14.7329C8.95785 14.8574 9.14913 14.9434 9.35219 14.9847H9.4287C9.44971 14.9847 9.48422 14.9847 9.46021 14.9442C9.83171 14.8284 10.1964 14.6918 10.5525 14.5349C10.6044 14.5141 10.6507 14.4812 10.6875 14.439C10.893 14.1949 11.0043 13.8854 11.0011 13.5665C11.0008 13.4749 10.9918 13.3835 10.9741 13.2936C10.9769 13.2535 10.9696 13.2133 10.9531 13.1767C10.9377 13.0557 10.9545 12.9327 11.002 12.8203C11.0494 12.7079 11.1257 12.61 11.2231 12.5365C11.2191 12.5326 11.2169 12.5272 11.2169 12.5215C11.2169 12.5159 11.2191 12.5105 11.2231 12.5065C11.2271 12.5026 11.2325 12.5003 11.2381 12.5003C11.2438 12.5003 11.2492 12.5026 11.2531 12.5065C11.3763 12.4164 11.4918 12.3161 11.5982 12.2067H11.6192C11.7447 12.0925 11.9086 12.0299 12.0783 12.0313C12.1345 12.0308 12.1905 12.0379 12.2449 12.0523C12.2671 12.0568 12.2887 12.0639 12.3094 12.0733C12.3355 12.078 12.3611 12.085 12.3859 12.0943C12.4678 12.1247 12.5521 12.1482 12.638 12.1647C12.7259 12.1824 12.8153 12.1915 12.905 12.1917C13.1469 12.1939 13.3851 12.1334 13.5967 12.0163L13.7137 11.8994C13.9389 11.5892 14.1314 11.2566 14.2883 10.9069C14.312 10.8604 14.3248 10.8092 14.3259 10.757C14.3221 10.5444 14.2722 10.3352 14.1797 10.1436C14.0873 9.95213 13.9544 9.7829 13.7902 9.64761C13.7722 9.62962 13.7527 9.61013 13.7347 9.58914C13.6482 9.51715 13.5816 9.42427 13.5412 9.31932C13.5007 9.21436 13.4878 9.10081 13.5037 8.98947V8.96698C13.5394 8.81897 13.5649 8.6687 13.5802 8.51722V8.50073C13.6537 8.05698 13.9823 7.94604 14.0213 7.94604C14.0362 7.949 14.0516 7.94807 14.0661 7.94335C14.0805 7.93862 14.0935 7.93025 14.1038 7.91905C14.3064 7.84971 14.4906 7.73508 14.6421 7.58387C14.7937 7.43267 14.9088 7.24888 14.9785 7.04653C14.9949 6.99832 15.002 6.94746 14.9995 6.89661C14.9669 6.5288 14.9042 6.16427 14.812 5.8067ZM7.50225 10.6611C6.89236 10.6661 6.2947 10.4901 5.78502 10.1554C5.27534 9.82068 4.87657 9.3423 4.63926 8.78089C4.40195 8.21948 4.33678 7.60032 4.452 7.00186C4.56723 6.4034 4.85767 5.8526 5.28651 5.41925C5.71535 4.9859 6.26329 4.68952 6.86088 4.56767C7.45848 4.44582 8.07882 4.50398 8.6433 4.73478C9.20778 4.96559 9.69097 5.35864 10.0317 5.86414C10.3723 6.36963 10.5552 6.96481 10.557 7.57424C10.5607 7.97775 10.4845 8.37802 10.3328 8.75197C10.181 9.12593 9.95671 9.46618 9.67276 9.75311C9.38881 10.0401 9.05083 10.268 8.67831 10.4238C8.30579 10.5797 7.90609 10.6603 7.50225 10.6611Z" fill="#808080"/>
</svg>
