<svg width="81" height="79" viewBox="0 0 81 79" fill="none" xmlns="http://www.w3.org/2000/svg">
<path d="M72.5113 0H7.4883C3.3594 0 0 3.3594 0 7.4883V47.0973C0 51.2262 3.3594 54.5856 7.4883 54.5856H15.6289L16.9883 76.2146C17.0469 77.2341 17.7578 78.1052 18.75 78.3865C18.9688 78.4451 19.1797 78.4763 19.3984 78.4763C20.1797 78.4763 20.9179 78.0974 21.3789 77.4451L37.2769 54.5861H72.5149C76.6438 54.5861 80.0032 51.2267 80.0032 47.0978L80.011 7.48884C79.9993 3.35994 76.6402 0 72.5113 0ZM75.1793 47.098C75.1793 48.5668 73.9801 49.7699 72.5074 49.7699H36.0074C35.2183 49.7699 34.4762 50.1605 34.0269 50.8011L21.3589 69.0201L20.2886 52.0321C20.2105 50.7626 19.1597 49.7704 17.8902 49.7704H7.4922C6.0234 49.7704 4.8203 48.5712 4.8203 47.0985V7.4895C4.8203 6.0207 6.0195 4.8176 7.4922 4.8176H72.5232C73.992 4.8176 75.1951 6.0168 75.1951 7.4895L75.1912 47.0985L75.1793 47.098Z" fill="black"/>
<path d="M61.66 13.179H18.25C16.9219 13.179 15.8398 14.2571 15.8398 15.5892C15.8398 16.9173 16.9179 17.9994 18.25 17.9994H61.66C62.9881 17.9994 64.0702 16.9213 64.0702 15.5892C64.0702 14.2494 62.9882 13.179 61.66 13.179Z" fill="black"/>
<path d="M61.66 25.3589H18.25C16.9219 25.3589 15.8398 26.437 15.8398 27.7691C15.8398 29.0972 16.9179 30.1793 18.25 30.1793H61.66C62.9881 30.1793 64.0702 29.1012 64.0702 27.7691C64.0702 26.437 62.9882 25.3589 61.66 25.3589Z" fill="black"/>
<path d="M50.871 37.539H18.25C16.9219 37.539 15.8398 38.6171 15.8398 39.9492C15.8398 41.2773 16.9179 42.3594 18.25 42.3594H50.871C52.1991 42.3594 53.2812 41.2813 53.2812 39.9492C53.2812 38.6172 52.1992 37.539 50.871 37.539Z" fill="black"/>
</svg>
