<svg width="15" height="15" viewBox="0 0 15 15" fill="none" xmlns="http://www.w3.org/2000/svg">
<path fill-rule="evenodd" clip-rule="evenodd" d="M7.50003 6.07965e-06C3.50686 6.07965e-06 0.242495 3.12093 0.0131834 7.05692C0.00439452 7.07742 0 7.10086 0 7.12503V14.8125C0 14.9158 0.0842285 15 0.187499 15H7.87497C7.89914 15 7.92258 14.9956 7.94309 14.9868C11.8791 14.7576 15 11.4931 15 7.49997C15 3.35811 11.6419 6.07965e-06 7.50003 6.07965e-06ZM3.18755 7.49998C3.18755 6.98216 3.60723 6.56248 4.12504 6.56248C4.64286 6.56248 5.06254 6.98216 5.06254 7.49998C5.06254 8.01779 4.64286 8.43747 4.12504 8.43747C3.60723 8.43747 3.18755 8.01779 3.18755 7.49998ZM6.56254 7.49998C6.56254 6.98216 6.98222 6.56248 7.50003 6.56248C8.01785 6.56248 8.43753 6.98216 8.43753 7.49998C8.43753 8.01779 8.01785 8.43747 7.50003 8.43747C6.98222 8.43747 6.56254 8.01779 6.56254 7.49998ZM10.875 6.56248C10.3572 6.56248 9.93752 6.98216 9.93752 7.49998C9.93752 8.01779 10.3572 8.43747 10.875 8.43747C11.3928 8.43747 11.8125 8.01779 11.8125 7.49998C11.8125 6.98216 11.3928 6.56248 10.875 6.56248Z" fill="#808080"/>
</svg>
