<svg width="22" height="23" viewBox="0 0 22 23" fill="none" xmlns="http://www.w3.org/2000/svg">
<path d="M21.123 6.96726C20.7158 6.5564 20.2008 6.269 19.6374 6.13821C19.0739 6.00742 18.485 6.03857 17.9385 6.22806C17.635 6.33586 17.3071 6.35537 16.993 6.28433C16.6788 6.2133 16.3912 6.05462 16.1636 5.82673C15.936 5.59883 15.7777 5.31106 15.7071 4.99681C15.6365 4.68257 15.6564 4.35473 15.7646 4.05136C15.9956 3.4062 16.001 2.7018 15.7801 2.05313C15.5592 1.40446 15.1249 0.849837 14.5482 0.479787C13.9714 0.109737 13.2862 -0.053882 12.6045 0.0156369C11.9228 0.0851559 11.2848 0.383707 10.7946 0.862559L3.92558 7.74026L3.92428 7.74106L0.876981 10.7926C0.315424 11.3548 0 12.1169 0 12.9116C0 13.7062 0.315424 14.4683 0.876981 15.0306C1.28424 15.4413 1.79924 15.7285 2.36264 15.8593C2.92604 15.9901 3.51494 15.9591 4.06148 15.7699C4.36498 15.662 4.69285 15.6425 5.00701 15.7135C5.32117 15.7845 5.60875 15.9432 5.83636 16.1711C6.06397 16.399 6.22228 16.6868 6.29291 17.001C6.36353 17.3153 6.34359 17.6431 6.23538 17.9465C6.04654 18.4937 6.01563 19.083 6.14619 19.647C6.27674 20.2109 6.56349 20.7267 6.97358 21.1353C7.25115 21.4136 7.58091 21.6344 7.94397 21.7851C8.30703 21.9358 8.69625 22.0133 9.08933 22.0133C9.48241 22.0133 9.87164 21.9358 10.2347 21.7851C10.5978 21.6344 10.9275 21.4136 11.2051 21.1353L21.123 11.2053C21.6845 10.643 22 9.88089 22 9.08626C22 8.29162 21.6845 7.52948 21.123 6.96726ZM19.709 9.78836L9.78998 19.7194C9.6013 19.9001 9.35011 20.001 9.08883 20.001C8.82755 20.001 8.57636 19.9001 8.38768 19.7194C8.24416 19.5793 8.14295 19.4016 8.09561 19.2067C8.04827 19.0119 8.05672 18.8076 8.11998 18.6173C8.31984 18.0578 8.38212 17.4585 8.30154 16.8699C8.22097 16.2813 7.99992 15.7208 7.65706 15.2356C7.31421 14.7505 6.85962 14.355 6.3317 14.0825C5.80378 13.8101 5.21805 13.6687 4.62398 13.6704C4.20408 13.6702 3.78724 13.7419 3.39158 13.8826C3.20147 13.9457 2.99744 13.954 2.80281 13.9066C2.60818 13.8593 2.43081 13.7581 2.29098 13.6147C2.10466 13.4283 1.99999 13.1756 1.99999 12.9121C1.99999 12.6485 2.10466 12.3958 2.29098 12.2095L4.63248 9.86506L8.00488 13.2412C8.19325 13.4258 8.44689 13.5286 8.71065 13.5271C8.9744 13.5257 9.22693 13.4202 9.4133 13.2336C9.59967 13.0469 9.70481 12.7943 9.70586 12.5305C9.70691 12.2668 9.60377 12.0133 9.41888 11.8252L6.04658 8.44926L12.21 2.27846C12.3987 2.09774 12.6499 1.99686 12.9111 1.99686C13.1724 1.99686 13.4236 2.09774 13.6123 2.27846C13.7558 2.41855 13.857 2.59619 13.9044 2.79108C13.9517 2.98597 13.9432 3.19024 13.88 3.38056C13.6445 4.04044 13.6011 4.75357 13.7547 5.43716C13.9083 6.12075 14.2526 6.74675 14.7477 7.2425C15.2428 7.73824 15.8683 8.08339 16.5517 8.23788C17.2351 8.39236 17.9483 8.34984 18.6085 8.11526C18.7986 8.05191 19.0027 8.04347 19.1973 8.09089C19.392 8.13832 19.5693 8.23969 19.709 8.38336C19.8953 8.56971 20 8.82244 20 9.08596C20 9.34948 19.8953 9.60201 19.709 9.78836ZM12.207 14.617C12.3948 14.8045 12.5005 15.0589 12.5007 15.3243C12.5009 15.5897 12.3957 15.8443 12.2082 16.0322C12.1153 16.1252 12.0051 16.199 11.8837 16.2494C11.7623 16.2998 11.6322 16.3257 11.5008 16.3259C11.2354 16.3261 10.9808 16.2209 10.793 16.0334L10.293 15.5328C10.1081 15.3447 10.005 15.0912 10.006 14.8274C10.007 14.5636 10.1122 14.311 10.2986 14.1243C10.4849 13.9377 10.7375 13.8322 11.0012 13.8308C11.265 13.8294 11.5186 13.9321 11.707 14.1168L12.207 14.617Z" fill="black"/>
</svg>
