<svg width="15" height="15" viewBox="0 0 15 15" fill="none" xmlns="http://www.w3.org/2000/svg">
<path d="M4.76665 7.13354L7.86614 10.233L3.463 14.6362C2.97888 15.1203 2.19375 15.1203 1.70888 14.6362L0.363451 13.2907C-0.120662 12.8059 -0.120662 12.0215 0.363451 11.5366L4.76665 7.13354Z" fill="#808080"/>
<path d="M13.0933 2.98746L9.22397 6.8568L8.14294 5.77578L12.0123 1.90644C12.1712 1.7475 12.2796 1.54463 12.3243 1.32417L12.3565 1.16377C12.3968 0.959439 12.5199 0.780718 12.6949 0.669402L13.5591 0.119365C13.8609 -0.072518 14.2564 -0.0293134 14.5098 0.224098L14.7757 0.489967C15.0291 0.743386 15.0723 1.13887 14.8804 1.44063L14.3304 2.30487C14.219 2.47991 14.0403 2.60295 13.836 2.64324L13.6756 2.67547C13.4551 2.72014 13.2523 2.82852 13.0933 2.98746Z" fill="#808080"/>
<path d="M3.89062 5.72735L9.27231 11.109C9.42611 10.7025 9.66708 10.321 9.99374 9.99358C10.3211 9.66693 10.7027 9.42598 11.1092 9.27216L5.7275 3.89047C5.5737 4.29696 5.33273 4.67853 5.00607 5.00592C4.67869 5.33258 4.29712 5.57353 3.89062 5.72735Z" fill="#808080"/>
<path d="M2.69108 0.233537C2.64201 0.39247 2.68083 0.614378 2.85587 0.788693L3.35465 1.28747C3.75967 1.6925 3.75967 2.34873 3.35465 2.75374L2.75408 3.35431C2.34905 3.75933 1.69282 3.75933 1.28781 3.35431L0.789033 2.85553C0.61472 2.68049 0.392799 2.64167 0.233877 2.69074C0.15551 2.71491 0.0939889 2.75959 0.0551717 2.81818C0.0163545 2.87604 -0.00927988 2.95953 0.00317169 3.07525C0.0698207 3.68388 0.336407 4.27419 0.802953 4.74074C1.53096 5.46875 2.56365 5.70972 3.49314 5.46143C3.95016 5.33985 4.38228 5.09962 4.74115 4.74074C5.10003 4.38185 5.33952 3.94973 5.46184 3.49273C5.71012 2.56332 5.46917 1.53059 4.74115 0.802545C4.2746 0.336 3.68429 0.0694001 3.07566 0.00349541C2.95994 -0.00968778 2.87645 0.0159463 2.81859 0.0547641C2.75999 0.0935813 2.71525 0.155172 2.69108 0.233537Z" fill="#808080"/>
<path d="M14.1972 10.2587C13.4691 9.53073 12.4365 9.28976 11.507 9.53805C11.0499 9.66036 10.6178 9.89985 10.259 10.2587C9.90007 10.6176 9.66058 11.0497 9.53826 11.5067C9.28998 12.4362 9.53094 13.4689 10.259 14.1977C10.7255 14.6635 11.3158 14.9301 11.9244 14.9967C12.0402 15.0092 12.1237 14.9836 12.1815 14.9447C12.2401 14.9059 12.2848 14.8444 12.309 14.766C12.358 14.6071 12.3192 14.3852 12.1442 14.2109L11.6454 13.7121C11.2404 13.3071 11.2404 12.6508 11.6454 12.2458L12.246 11.6453C12.651 11.2402 13.3072 11.2402 13.7122 11.6453L14.211 12.144C14.3853 12.3191 14.6072 12.3579 14.7662 12.3088C14.8445 12.2847 14.906 12.24 14.9449 12.1814C14.9837 12.1235 15.0093 12.04 14.9969 11.9243C14.9302 11.3157 14.6637 10.7253 14.1972 10.2587Z" fill="#808080"/>
</svg>
